<?xml version="1.0" encoding="UTF-8" standalone="no"?>
<!DOCTYPE svg PUBLIC "-//W3C//DTD SVG 1.1//EN"
 "http://www.w3.org/Graphics/SVG/1.1/DTD/svg11.dtd">
<!-- Generated by graphviz version 2.40.1 (20161225.0304)
 -->
<!-- Title: dependencies Pages: 1 -->
<svg width="2087pt" height="284pt"
 viewBox="0.00 0.00 2087.00 284.00" xmlns="http://www.w3.org/2000/svg" xmlns:xlink="http://www.w3.org/1999/xlink">
<g id="graph0" class="graph" transform="scale(1 1) rotate(0) translate(4 280)">
<title>dependencies</title>
<polygon fill="#ffffff" stroke="transparent" points="-4,4 -4,-280 2083,-280 2083,4 -4,4"/>
<text text-anchor="start" x="1018.5091" y="-42.4" font-family="sans-serif" font-weight="bold" font-size="14.00" fill="#000000">Legend</text>
<polygon fill="#ffffb3" stroke="transparent" points="805.5,-10 805.5,-30 825.5,-30 825.5,-10 805.5,-10"/>
<text text-anchor="start" x="829.129" y="-15.4" font-family="sans-serif" font-size="14.00" fill="#000000"> &#160;Declarations</text>
<polygon fill="#8dd3c7" stroke="transparent" points="918.5,-10 918.5,-30 938.5,-30 938.5,-10 918.5,-10"/>
<text text-anchor="start" x="942.2251" y="-15.4" font-family="sans-serif" font-size="14.00" fill="#000000"> &#160;Module</text>
<polygon fill="#80b1d3" stroke="transparent" points="1004.5,-10 1004.5,-30 1024.5,-30 1024.5,-10 1004.5,-10"/>
<text text-anchor="start" x="1028.2812" y="-15.4" font-family="sans-serif" font-size="14.00" fill="#000000"> &#160;Bootstrap</text>
<polygon fill="#fdb462" stroke="transparent" points="1101.5,-10 1101.5,-30 1121.5,-30 1121.5,-10 1101.5,-10"/>
<text text-anchor="start" x="1125.1732" y="-15.4" font-family="sans-serif" font-size="14.00" fill="#000000"> &#160;Providers</text>
<polygon fill="#fb8072" stroke="transparent" points="1197.5,-10 1197.5,-30 1217.5,-30 1217.5,-10 1197.5,-10"/>
<text text-anchor="start" x="1221.2258" y="-15.4" font-family="sans-serif" font-size="14.00" fill="#000000"> &#160;Exports</text>
<g id="clust1" class="cluster">
<title>cluster_AppModule</title>
<polygon fill="none" stroke="#000000" stroke-dasharray="1,5" points="8,-70 8,-268 2071,-268 2071,-70 8,-70"/>
</g>
<g id="clust2" class="cluster">
<title>cluster_AppModule_declarations</title>
<polygon fill="none" stroke="#000000" points="1521,-78 1521,-130 2063,-130 2063,-78 1521,-78"/>
</g>
<g id="clust7" class="cluster">
<title>cluster_AppModule_imports</title>
<polygon fill="none" stroke="#000000" points="16,-78 16,-130 1513,-130 1513,-78 16,-78"/>
</g>
<g id="clust9" class="cluster">
<title>cluster_AppModule_bootstrap</title>
<polygon fill="none" stroke="#000000" points="1112,-208 1112,-260 1236,-260 1236,-208 1112,-208"/>
</g>
<!-- AppComponent -->
<g id="node1" class="node">
<title>AppComponent</title>
<polygon fill="#ffffb3" stroke="#000000" points="2054.9399,-122 1949.0601,-122 1949.0601,-86 2054.9399,-86 2054.9399,-122"/>
<text text-anchor="middle" x="2002" y="-99.8" font-family="Times,serif" font-size="14.00" fill="#000000">AppComponent</text>
</g>
<!-- AppModule -->
<g id="node5" class="node">
<title>AppModule</title>
<polygon fill="#8dd3c7" stroke="#000000" points="1215.6571,-187 1212.6571,-191 1191.6571,-191 1188.6571,-187 1132.3429,-187 1132.3429,-151 1215.6571,-151 1215.6571,-187"/>
<text text-anchor="middle" x="1174" y="-164.8" font-family="Times,serif" font-size="14.00" fill="#000000">AppModule</text>
</g>
<!-- AppComponent&#45;&gt;AppModule -->
<g id="edge1" class="edge">
<title>AppComponent&#45;&gt;AppModule</title>
<path fill="none" stroke="#000000" d="M2002,-122.0908C2002,-145.1328 2002,-182 2002,-182 2002,-182 1225.9131,-182 1225.9131,-182"/>
<polygon fill="#000000" stroke="#000000" points="1225.9131,-178.5001 1215.9131,-182 1225.9131,-185.5001 1225.9131,-178.5001"/>
</g>
<!-- HeaderComponent -->
<g id="node2" class="node">
<title>HeaderComponent</title>
<polygon fill="#ffffb3" stroke="#000000" points="1930.7437,-122 1809.2563,-122 1809.2563,-86 1930.7437,-86 1930.7437,-122"/>
<text text-anchor="middle" x="1870" y="-99.8" font-family="Times,serif" font-size="14.00" fill="#000000">HeaderComponent</text>
</g>
<!-- HeaderComponent&#45;&gt;AppModule -->
<g id="edge2" class="edge">
<title>HeaderComponent&#45;&gt;AppModule</title>
<path fill="none" stroke="#000000" d="M1870,-122.0449C1870,-143.6623 1870,-177 1870,-177 1870,-177 1225.7117,-177 1225.7117,-177"/>
<polygon fill="#000000" stroke="#000000" points="1225.7118,-173.5001 1215.7117,-177 1225.7117,-180.5001 1225.7118,-173.5001"/>
</g>
<!-- FooterComponent -->
<g id="node3" class="node">
<title>FooterComponent</title>
<polygon fill="#ffffb3" stroke="#000000" points="1790.8809,-122 1673.1191,-122 1673.1191,-86 1790.8809,-86 1790.8809,-122"/>
<text text-anchor="middle" x="1732" y="-99.8" font-family="Times,serif" font-size="14.00" fill="#000000">FooterComponent</text>
</g>
<!-- FooterComponent&#45;&gt;AppModule -->
<g id="edge3" class="edge">
<title>FooterComponent&#45;&gt;AppModule</title>
<path fill="none" stroke="#000000" d="M1732,-122.2228C1732,-142.3652 1732,-172 1732,-172 1732,-172 1225.9407,-172 1225.9407,-172"/>
<polygon fill="#000000" stroke="#000000" points="1225.9407,-168.5001 1215.9407,-172 1225.9407,-175.5001 1225.9407,-168.5001"/>
</g>
<!-- ContentComponent -->
<g id="node4" class="node">
<title>ContentComponent</title>
<polygon fill="#ffffb3" stroke="#000000" points="1654.6652,-122 1529.3348,-122 1529.3348,-86 1654.6652,-86 1654.6652,-122"/>
<text text-anchor="middle" x="1592" y="-99.8" font-family="Times,serif" font-size="14.00" fill="#000000">ContentComponent</text>
</g>
<!-- ContentComponent&#45;&gt;AppModule -->
<g id="edge4" class="edge">
<title>ContentComponent&#45;&gt;AppModule</title>
<path fill="none" stroke="#000000" d="M1592,-122.2222C1592,-140.8285 1592,-167 1592,-167 1592,-167 1225.9933,-167 1225.9933,-167"/>
<polygon fill="#000000" stroke="#000000" points="1225.9933,-163.5001 1215.9933,-167 1225.9932,-170.5001 1225.9933,-163.5001"/>
</g>
<!-- AppComponent  -->
<g id="node15" class="node">
<title>AppComponent </title>
<polygon fill="#80b1d3" stroke="#000000" points="1228.439,-252 1119.561,-252 1119.561,-216 1228.439,-216 1228.439,-252"/>
<text text-anchor="middle" x="1174" y="-229.8" font-family="Times,serif" font-size="14.00" fill="#000000">AppComponent </text>
</g>
<!-- AppModule&#45;&gt;AppComponent  -->
<g id="edge14" class="edge">
<title>AppModule&#45;&gt;AppComponent </title>
<path fill="none" stroke="#000000" stroke-dasharray="1,5" d="M1174,-187.1061C1174,-187.1061 1174,-205.991 1174,-205.991"/>
<polygon fill="#000000" stroke="#000000" points="1170.5001,-205.9909 1174,-215.991 1177.5001,-205.991 1170.5001,-205.9909"/>
</g>
<!-- BrowserModule -->
<g id="node6" class="node">
<title>BrowserModule</title>
<polygon fill="#8dd3c7" stroke="#000000" points="1505.4734,-122 1502.4734,-126 1481.4734,-126 1478.4734,-122 1398.5266,-122 1398.5266,-86 1505.4734,-86 1505.4734,-122"/>
<text text-anchor="middle" x="1452" y="-99.8" font-family="Times,serif" font-size="14.00" fill="#000000">BrowserModule</text>
</g>
<!-- BrowserModule&#45;&gt;AppModule -->
<g id="edge5" class="edge">
<title>BrowserModule&#45;&gt;AppModule</title>
<path fill="none" stroke="#000000" d="M1452,-122.0336C1452,-139.0597 1452,-162 1452,-162 1452,-162 1225.9204,-162 1225.9204,-162"/>
<polygon fill="#000000" stroke="#000000" points="1225.9204,-158.5001 1215.9204,-162 1225.9204,-165.5001 1225.9204,-158.5001"/>
</g>
<!-- AppRoutingModule -->
<g id="node7" class="node">
<title>AppRoutingModule</title>
<polygon fill="#8dd3c7" stroke="#000000" points="1380.2744,-122 1377.2744,-126 1356.2744,-126 1353.2744,-122 1251.7256,-122 1251.7256,-86 1380.2744,-86 1380.2744,-122"/>
<text text-anchor="middle" x="1316" y="-99.8" font-family="Times,serif" font-size="14.00" fill="#000000">AppRoutingModule</text>
</g>
<!-- AppRoutingModule&#45;&gt;AppModule -->
<g id="edge6" class="edge">
<title>AppRoutingModule&#45;&gt;AppModule</title>
<path fill="none" stroke="#000000" d="M1316,-122.2396C1316,-137.5706 1316,-157 1316,-157 1316,-157 1225.8367,-157 1225.8367,-157"/>
<polygon fill="#000000" stroke="#000000" points="1225.8367,-153.5001 1215.8367,-157 1225.8366,-160.5001 1225.8367,-153.5001"/>
</g>
<!-- HttpClientModule -->
<g id="node8" class="node">
<title>HttpClientModule</title>
<polygon fill="#8dd3c7" stroke="#000000" points="1233.1611,-122 1230.1611,-126 1209.1611,-126 1206.1611,-122 1114.8389,-122 1114.8389,-86 1233.1611,-86 1233.1611,-122"/>
<text text-anchor="middle" x="1174" y="-99.8" font-family="Times,serif" font-size="14.00" fill="#000000">HttpClientModule</text>
</g>
<!-- HttpClientModule&#45;&gt;AppModule -->
<g id="edge7" class="edge">
<title>HttpClientModule&#45;&gt;AppModule</title>
<path fill="none" stroke="#000000" d="M1174,-122.1061C1174,-122.1061 1174,-140.991 1174,-140.991"/>
<polygon fill="#000000" stroke="#000000" points="1170.5001,-140.9909 1174,-150.991 1177.5001,-140.991 1170.5001,-140.9909"/>
</g>
<!-- BrowserAnimationsModule -->
<g id="node9" class="node">
<title>BrowserAnimationsModule</title>
<polygon fill="#8dd3c7" stroke="#000000" points="1097.3019,-122 1094.3019,-126 1073.3019,-126 1070.3019,-122 924.6981,-122 924.6981,-86 1097.3019,-86 1097.3019,-122"/>
<text text-anchor="middle" x="1011" y="-99.8" font-family="Times,serif" font-size="14.00" fill="#000000">BrowserAnimationsModule</text>
</g>
<!-- BrowserAnimationsModule&#45;&gt;AppModule -->
<g id="edge8" class="edge">
<title>BrowserAnimationsModule&#45;&gt;AppModule</title>
<path fill="none" stroke="#000000" d="M1011,-122.2396C1011,-137.5706 1011,-157 1011,-157 1011,-157 1122.0234,-157 1122.0234,-157"/>
<polygon fill="#000000" stroke="#000000" points="1122.0235,-160.5001 1132.0234,-157 1122.0234,-153.5001 1122.0235,-160.5001"/>
</g>
<!-- FontAwesomeModule -->
<g id="node10" class="node">
<title>FontAwesomeModule</title>
<polygon fill="#8dd3c7" stroke="#000000" points="906.7007,-122 903.7007,-126 882.7007,-126 879.7007,-122 765.2993,-122 765.2993,-86 906.7007,-86 906.7007,-122"/>
<text text-anchor="middle" x="836" y="-99.8" font-family="Times,serif" font-size="14.00" fill="#000000">FontAwesomeModule</text>
</g>
<!-- FontAwesomeModule&#45;&gt;AppModule -->
<g id="edge9" class="edge">
<title>FontAwesomeModule&#45;&gt;AppModule</title>
<path fill="none" stroke="#000000" d="M836,-122.0336C836,-139.0597 836,-162 836,-162 836,-162 1122.2156,-162 1122.2156,-162"/>
<polygon fill="#000000" stroke="#000000" points="1122.2156,-165.5001 1132.2156,-162 1122.2155,-158.5001 1122.2156,-165.5001"/>
</g>
<!-- AppMaterialModule -->
<g id="node11" class="node">
<title>AppMaterialModule</title>
<polygon fill="#8dd3c7" stroke="#000000" points="747.5772,-122 744.5772,-126 723.5772,-126 720.5772,-122 616.4228,-122 616.4228,-86 747.5772,-86 747.5772,-122"/>
<text text-anchor="middle" x="682" y="-99.8" font-family="Times,serif" font-size="14.00" fill="#000000">AppMaterialModule</text>
</g>
<!-- AppMaterialModule&#45;&gt;AppModule -->
<g id="edge10" class="edge">
<title>AppMaterialModule&#45;&gt;AppModule</title>
<path fill="none" stroke="#000000" d="M682,-122.2222C682,-140.8285 682,-167 682,-167 682,-167 1122.0524,-167 1122.0524,-167"/>
<polygon fill="#000000" stroke="#000000" points="1122.0524,-170.5001 1132.0524,-167 1122.0523,-163.5001 1122.0524,-170.5001"/>
</g>
<!-- FlexLayoutModule -->
<g id="node12" class="node">
<title>FlexLayoutModule</title>
<polygon fill="#8dd3c7" stroke="#000000" points="598.0954,-122 595.0954,-126 574.0954,-126 571.0954,-122 473.9046,-122 473.9046,-86 598.0954,-86 598.0954,-122"/>
<text text-anchor="middle" x="536" y="-99.8" font-family="Times,serif" font-size="14.00" fill="#000000">FlexLayoutModule</text>
</g>
<!-- FlexLayoutModule&#45;&gt;AppModule -->
<g id="edge11" class="edge">
<title>FlexLayoutModule&#45;&gt;AppModule</title>
<path fill="none" stroke="#000000" d="M536,-122.2228C536,-142.3652 536,-172 536,-172 536,-172 1122.139,-172 1122.139,-172"/>
<polygon fill="#000000" stroke="#000000" points="1122.1391,-175.5001 1132.139,-172 1122.139,-168.5001 1122.1391,-175.5001"/>
</g>
<!-- BsDatepickerModule.forRoot() -->
<g id="node13" class="node">
<title>BsDatepickerModule.forRoot()</title>
<polygon fill="#8dd3c7" stroke="#000000" points="456.1074,-122 453.1074,-126 432.1074,-126 429.1074,-122 263.8926,-122 263.8926,-86 456.1074,-86 456.1074,-122"/>
<text text-anchor="middle" x="360" y="-99.8" font-family="Times,serif" font-size="14.00" fill="#000000">BsDatepickerModule.forRoot()</text>
</g>
<!-- BsDatepickerModule.forRoot()&#45;&gt;AppModule -->
<g id="edge12" class="edge">
<title>BsDatepickerModule.forRoot()&#45;&gt;AppModule</title>
<path fill="none" stroke="#000000" d="M360,-122.0449C360,-143.6623 360,-177 360,-177 360,-177 1122.2326,-177 1122.2326,-177"/>
<polygon fill="#000000" stroke="#000000" points="1122.2327,-180.5001 1132.2326,-177 1122.2326,-173.5001 1122.2327,-180.5001"/>
</g>
<!-- ServiceWorkerModule.register(args) -->
<g id="node14" class="node">
<title>ServiceWorkerModule.register(args)</title>
<polygon fill="#8dd3c7" stroke="#000000" points="246.3954,-122 243.3954,-126 222.3954,-126 219.3954,-122 23.6046,-122 23.6046,-86 246.3954,-86 246.3954,-122"/>
<text text-anchor="middle" x="135" y="-99.8" font-family="Times,serif" font-size="14.00" fill="#000000">ServiceWorkerModule.register(args)</text>
</g>
<!-- ServiceWorkerModule.register(args)&#45;&gt;AppModule -->
<g id="edge13" class="edge">
<title>ServiceWorkerModule.register(args)&#45;&gt;AppModule</title>
<path fill="none" stroke="#000000" d="M135,-122.0908C135,-145.1328 135,-182 135,-182 135,-182 1122.3065,-182 1122.3065,-182"/>
<polygon fill="#000000" stroke="#000000" points="1122.3066,-185.5001 1132.3065,-182 1122.3065,-178.5001 1122.3066,-185.5001"/>
</g>
</g>
</svg>
