<?xml version="1.0" encoding="UTF-8" standalone="no"?>
<!DOCTYPE svg PUBLIC "-//W3C//DTD SVG 1.1//EN"
 "http://www.w3.org/Graphics/SVG/1.1/DTD/svg11.dtd">
<!-- Generated by graphviz version 2.40.1 (20161225.0304)
 -->
<!-- Title: dependencies Pages: 1 -->
<svg width="1616pt" height="284pt"
 viewBox="0.00 0.00 1616.00 284.00" xmlns="http://www.w3.org/2000/svg" xmlns:xlink="http://www.w3.org/1999/xlink">
<g id="graph0" class="graph" transform="scale(1 1) rotate(0) translate(4 280)">
<title>dependencies</title>
<polygon fill="#ffffff" stroke="transparent" points="-4,4 -4,-280 1612,-280 1612,4 -4,4"/>
<text text-anchor="start" x="783.0091" y="-42.4" font-family="sans-serif" font-weight="bold" font-size="14.00" fill="#000000">Legend</text>
<polygon fill="#ffffb3" stroke="transparent" points="570,-10 570,-30 590,-30 590,-10 570,-10"/>
<text text-anchor="start" x="593.629" y="-15.4" font-family="sans-serif" font-size="14.00" fill="#000000"> &#160;Declarations</text>
<polygon fill="#8dd3c7" stroke="transparent" points="683,-10 683,-30 703,-30 703,-10 683,-10"/>
<text text-anchor="start" x="706.7251" y="-15.4" font-family="sans-serif" font-size="14.00" fill="#000000"> &#160;Module</text>
<polygon fill="#80b1d3" stroke="transparent" points="769,-10 769,-30 789,-30 789,-10 769,-10"/>
<text text-anchor="start" x="792.7812" y="-15.4" font-family="sans-serif" font-size="14.00" fill="#000000"> &#160;Bootstrap</text>
<polygon fill="#fdb462" stroke="transparent" points="866,-10 866,-30 886,-30 886,-10 866,-10"/>
<text text-anchor="start" x="889.6732" y="-15.4" font-family="sans-serif" font-size="14.00" fill="#000000"> &#160;Providers</text>
<polygon fill="#fb8072" stroke="transparent" points="962,-10 962,-30 982,-30 982,-10 962,-10"/>
<text text-anchor="start" x="985.7258" y="-15.4" font-family="sans-serif" font-size="14.00" fill="#000000"> &#160;Exports</text>
<g id="clust1" class="cluster">
<title>cluster_AppMaterialModule</title>
<polygon fill="none" stroke="#000000" stroke-dasharray="1,5" points="8,-70 8,-268 1600,-268 1600,-70 8,-70"/>
</g>
<g id="clust3" class="cluster">
<title>cluster_AppMaterialModule_imports</title>
<polygon fill="none" stroke="#000000" points="16,-78 16,-130 1592,-130 1592,-78 16,-78"/>
</g>
<g id="clust4" class="cluster">
<title>cluster_AppMaterialModule_exports</title>
<polygon fill="none" stroke="#000000" points="64,-208 64,-260 1545,-260 1545,-208 64,-208"/>
</g>
<!-- CommonModule -->
<g id="node1" class="node">
<title>CommonModule</title>
<polygon fill="#8dd3c7" stroke="#000000" points="1583.6681,-122 1580.6681,-126 1559.6681,-126 1556.6681,-122 1472.3319,-122 1472.3319,-86 1583.6681,-86 1583.6681,-122"/>
<text text-anchor="middle" x="1528" y="-99.8" font-family="Times,serif" font-size="14.00" fill="#000000">CommonModule</text>
</g>
<!-- AppMaterialModule -->
<g id="node12" class="node">
<title>AppMaterialModule</title>
<polygon fill="#8dd3c7" stroke="#000000" points="892.5772,-187 889.5772,-191 868.5772,-191 865.5772,-187 761.4228,-187 761.4228,-151 892.5772,-151 892.5772,-187"/>
<text text-anchor="middle" x="827" y="-164.8" font-family="Times,serif" font-size="14.00" fill="#000000">AppMaterialModule</text>
</g>
<!-- CommonModule&#45;&gt;AppMaterialModule -->
<g id="edge1" class="edge">
<title>CommonModule&#45;&gt;AppMaterialModule</title>
<path fill="none" stroke="#000000" d="M1504.5626,-122.1061C1504.5626,-141.3391 1504.5626,-169 1504.5626,-169 1504.5626,-169 902.5832,-169 902.5832,-169"/>
<polygon fill="#000000" stroke="#000000" points="902.5832,-165.5001 892.5832,-169 902.5832,-172.5001 902.5832,-165.5001"/>
</g>
<!-- MatToolbarModule -->
<g id="node2" class="node">
<title>MatToolbarModule</title>
<polygon fill="#8dd3c7" stroke="#000000" points="1454.4187,-122 1451.4187,-126 1430.4187,-126 1427.4187,-122 1327.5813,-122 1327.5813,-86 1454.4187,-86 1454.4187,-122"/>
<text text-anchor="middle" x="1391" y="-99.8" font-family="Times,serif" font-size="14.00" fill="#000000">MatToolbarModule</text>
</g>
<!-- MatToolbarModule&#45;&gt;AppMaterialModule -->
<g id="edge2" class="edge">
<title>MatToolbarModule&#45;&gt;AppMaterialModule</title>
<path fill="none" stroke="#000000" d="M1358.4602,-122.2667C1358.4602,-140.5552 1358.4602,-166 1358.4602,-166 1358.4602,-166 902.7005,-166 902.7005,-166"/>
<polygon fill="#000000" stroke="#000000" points="902.7005,-162.5001 892.7005,-166 902.7005,-169.5001 902.7005,-162.5001"/>
</g>
<!-- MatMenuModule -->
<g id="node3" class="node">
<title>MatMenuModule</title>
<polygon fill="#8dd3c7" stroke="#000000" points="1309.2591,-122 1306.2591,-126 1285.2591,-126 1282.2591,-122 1194.7409,-122 1194.7409,-86 1309.2591,-86 1309.2591,-122"/>
<text text-anchor="middle" x="1252" y="-99.8" font-family="Times,serif" font-size="14.00" fill="#000000">MatMenuModule</text>
</g>
<!-- MatMenuModule&#45;&gt;AppMaterialModule -->
<g id="edge3" class="edge">
<title>MatMenuModule&#45;&gt;AppMaterialModule</title>
<path fill="none" stroke="#000000" d="M1223.7397,-122.0336C1223.7397,-139.0597 1223.7397,-162 1223.7397,-162 1223.7397,-162 902.9588,-162 902.9588,-162"/>
<polygon fill="#000000" stroke="#000000" points="902.9589,-158.5001 892.9588,-162 902.9588,-165.5001 902.9589,-158.5001"/>
</g>
<!-- MatButtonModule -->
<g id="node4" class="node">
<title>MatButtonModule</title>
<polygon fill="#8dd3c7" stroke="#000000" points="1177.2176,-122 1174.2176,-126 1153.2176,-126 1150.2176,-122 1056.7824,-122 1056.7824,-86 1177.2176,-86 1177.2176,-122"/>
<text text-anchor="middle" x="1117" y="-99.8" font-family="Times,serif" font-size="14.00" fill="#000000">MatButtonModule</text>
</g>
<!-- MatButtonModule&#45;&gt;AppMaterialModule -->
<g id="edge4" class="edge">
<title>MatButtonModule&#45;&gt;AppMaterialModule</title>
<path fill="none" stroke="#000000" d="M1084.0644,-122.0091C1084.0644,-138.0494 1084.0644,-159 1084.0644,-159 1084.0644,-159 902.8666,-159 902.8666,-159"/>
<polygon fill="#000000" stroke="#000000" points="902.8667,-155.5001 892.8666,-159 902.8666,-162.5001 902.8667,-155.5001"/>
</g>
<!-- MatIconModule -->
<g id="node5" class="node">
<title>MatIconModule</title>
<polygon fill="#8dd3c7" stroke="#000000" points="1038.4748,-122 1035.4748,-126 1014.4748,-126 1011.4748,-122 931.5252,-122 931.5252,-86 1038.4748,-86 1038.4748,-122"/>
<text text-anchor="middle" x="985" y="-99.8" font-family="Times,serif" font-size="14.00" fill="#000000">MatIconModule</text>
</g>
<!-- MatIconModule&#45;&gt;AppMaterialModule -->
<g id="edge5" class="edge">
<title>MatIconModule&#45;&gt;AppMaterialModule</title>
<path fill="none" stroke="#000000" d="M957.0952,-122.1243C957.0952,-136.7832 957.0952,-155 957.0952,-155 957.0952,-155 902.8099,-155 902.8099,-155"/>
<polygon fill="#000000" stroke="#000000" points="902.8099,-151.5001 892.8099,-155 902.8098,-158.5001 902.8099,-151.5001"/>
</g>
<!-- MatProgressSpinnerModule -->
<g id="node6" class="node">
<title>MatProgressSpinnerModule</title>
<polygon fill="#8dd3c7" stroke="#000000" points="913.8557,-122 910.8557,-126 889.8557,-126 886.8557,-122 740.1443,-122 740.1443,-86 913.8557,-86 913.8557,-122"/>
<text text-anchor="middle" x="827" y="-99.8" font-family="Times,serif" font-size="14.00" fill="#000000">MatProgressSpinnerModule</text>
</g>
<!-- MatProgressSpinnerModule&#45;&gt;AppMaterialModule -->
<g id="edge6" class="edge">
<title>MatProgressSpinnerModule&#45;&gt;AppMaterialModule</title>
<path fill="none" stroke="#000000" d="M827,-122.1061C827,-122.1061 827,-140.991 827,-140.991"/>
<polygon fill="#000000" stroke="#000000" points="823.5001,-140.9909 827,-150.991 830.5001,-140.991 823.5001,-140.9909"/>
</g>
<!-- MatSidenavModule -->
<g id="node7" class="node">
<title>MatSidenavModule</title>
<polygon fill="#8dd3c7" stroke="#000000" points="721.7022,-122 718.7022,-126 697.7022,-126 694.7022,-122 594.2978,-122 594.2978,-86 721.7022,-86 721.7022,-122"/>
<text text-anchor="middle" x="658" y="-99.8" font-family="Times,serif" font-size="14.00" fill="#000000">MatSidenavModule</text>
</g>
<!-- MatSidenavModule&#45;&gt;AppMaterialModule -->
<g id="edge7" class="edge">
<title>MatSidenavModule&#45;&gt;AppMaterialModule</title>
<path fill="none" stroke="#000000" d="M689.125,-122.1243C689.125,-136.7832 689.125,-155 689.125,-155 689.125,-155 751.2929,-155 751.2929,-155"/>
<polygon fill="#000000" stroke="#000000" points="751.2929,-158.5001 761.2929,-155 751.2929,-151.5001 751.2929,-158.5001"/>
</g>
<!-- MatListModule -->
<g id="node8" class="node">
<title>MatListModule</title>
<polygon fill="#8dd3c7" stroke="#000000" points="575.8781,-122 572.8781,-126 551.8781,-126 548.8781,-122 472.1219,-122 472.1219,-86 575.8781,-86 575.8781,-122"/>
<text text-anchor="middle" x="524" y="-99.8" font-family="Times,serif" font-size="14.00" fill="#000000">MatListModule</text>
</g>
<!-- MatListModule&#45;&gt;AppMaterialModule -->
<g id="edge8" class="edge">
<title>MatListModule&#45;&gt;AppMaterialModule</title>
<path fill="none" stroke="#000000" d="M553.625,-122.0091C553.625,-138.0494 553.625,-159 553.625,-159 553.625,-159 751.172,-159 751.172,-159"/>
<polygon fill="#000000" stroke="#000000" points="751.172,-162.5001 761.172,-159 751.172,-155.5001 751.172,-162.5001"/>
</g>
<!-- MatCardModule -->
<g id="node9" class="node">
<title>MatCardModule</title>
<polygon fill="#8dd3c7" stroke="#000000" points="453.8118,-122 450.8118,-126 429.8118,-126 426.8118,-122 344.1882,-122 344.1882,-86 453.8118,-86 453.8118,-122"/>
<text text-anchor="middle" x="399" y="-99.8" font-family="Times,serif" font-size="14.00" fill="#000000">MatCardModule</text>
</g>
<!-- MatCardModule&#45;&gt;AppMaterialModule -->
<g id="edge9" class="edge">
<title>MatCardModule&#45;&gt;AppMaterialModule</title>
<path fill="none" stroke="#000000" d="M427.125,-122.0336C427.125,-139.0597 427.125,-162 427.125,-162 427.125,-162 751.4165,-162 751.4165,-162"/>
<polygon fill="#000000" stroke="#000000" points="751.4166,-165.5001 761.4165,-162 751.4165,-158.5001 751.4166,-165.5001"/>
</g>
<!-- MatFormFieldModule -->
<g id="node10" class="node">
<title>MatFormFieldModule</title>
<polygon fill="#8dd3c7" stroke="#000000" points="326.712,-122 323.712,-126 302.712,-126 299.712,-122 185.288,-122 185.288,-86 326.712,-86 326.712,-122"/>
<text text-anchor="middle" x="256" y="-99.8" font-family="Times,serif" font-size="14.00" fill="#000000">MatFormFieldModule</text>
</g>
<!-- MatFormFieldModule&#45;&gt;AppMaterialModule -->
<g id="edge10" class="edge">
<title>MatFormFieldModule&#45;&gt;AppMaterialModule</title>
<path fill="none" stroke="#000000" d="M282.125,-122.2667C282.125,-140.5552 282.125,-166 282.125,-166 282.125,-166 751.2753,-166 751.2753,-166"/>
<polygon fill="#000000" stroke="#000000" points="751.2754,-169.5001 761.2753,-166 751.2753,-162.5001 751.2754,-169.5001"/>
</g>
<!-- MatDatepickerModule -->
<g id="node11" class="node">
<title>MatDatepickerModule</title>
<polygon fill="#8dd3c7" stroke="#000000" points="167.5072,-122 164.5072,-126 143.5072,-126 140.5072,-122 24.4928,-122 24.4928,-86 167.5072,-86 167.5072,-122"/>
<text text-anchor="middle" x="96" y="-99.8" font-family="Times,serif" font-size="14.00" fill="#000000">MatDatepickerModule</text>
</g>
<!-- MatDatepickerModule&#45;&gt;AppMaterialModule -->
<g id="edge11" class="edge">
<title>MatDatepickerModule&#45;&gt;AppMaterialModule</title>
<path fill="none" stroke="#000000" d="M120.125,-122.1061C120.125,-141.3391 120.125,-169 120.125,-169 120.125,-169 751.4501,-169 751.4501,-169"/>
<polygon fill="#000000" stroke="#000000" points="751.4502,-172.5001 761.4501,-169 751.4501,-165.5001 751.4502,-172.5001"/>
</g>
<!-- MatToolbarModule  -->
<g id="node13" class="node">
<title>MatToolbarModule </title>
<polygon fill="#fb8072" stroke="#000000" points="1536.918,-252 1407.082,-252 1407.082,-216 1536.918,-216 1536.918,-252"/>
<text text-anchor="middle" x="1472" y="-229.8" font-family="Times,serif" font-size="14.00" fill="#000000">MatToolbarModule </text>
</g>
<!-- AppMaterialModule&#45;&gt;MatToolbarModule  -->
<g id="edge12" class="edge">
<title>AppMaterialModule&#45;&gt;MatToolbarModule </title>
<path fill="none" stroke="#000000" stroke-dasharray="5,2" d="M892.7475,-173C1049.1939,-173 1430.625,-173 1430.625,-173 1430.625,-173 1430.625,-205.698 1430.625,-205.698"/>
<polygon fill="#000000" stroke="#000000" points="1427.1251,-205.698 1430.625,-215.698 1434.1251,-205.698 1427.1251,-205.698"/>
</g>
<!-- MatMenuModule  -->
<g id="node14" class="node">
<title>MatMenuModule </title>
<polygon fill="#fb8072" stroke="#000000" points="1389.2591,-252 1270.7409,-252 1270.7409,-216 1389.2591,-216 1389.2591,-252"/>
<text text-anchor="middle" x="1330" y="-229.8" font-family="Times,serif" font-size="14.00" fill="#000000">MatMenuModule </text>
</g>
<!-- AppMaterialModule&#45;&gt;MatMenuModule  -->
<g id="edge13" class="edge">
<title>AppMaterialModule&#45;&gt;MatMenuModule </title>
<path fill="none" stroke="#000000" stroke-dasharray="5,2" d="M892.8627,-177C1020.7233,-177 1290.125,-177 1290.125,-177 1290.125,-177 1290.125,-205.9648 1290.125,-205.9648"/>
<polygon fill="#000000" stroke="#000000" points="1286.6251,-205.9648 1290.125,-215.9648 1293.6251,-205.9649 1286.6251,-205.9648"/>
</g>
<!-- MatButtonModule  -->
<g id="node15" class="node">
<title>MatButtonModule </title>
<polygon fill="#fb8072" stroke="#000000" points="1252.7177,-252 1129.2823,-252 1129.2823,-216 1252.7177,-216 1252.7177,-252"/>
<text text-anchor="middle" x="1191" y="-229.8" font-family="Times,serif" font-size="14.00" fill="#000000">MatButtonModule </text>
</g>
<!-- AppMaterialModule&#45;&gt;MatButtonModule  -->
<g id="edge14" class="edge">
<title>AppMaterialModule&#45;&gt;MatButtonModule </title>
<path fill="none" stroke="#000000" stroke-dasharray="5,2" d="M892.604,-180C987.8378,-180 1153.125,-180 1153.125,-180 1153.125,-180 1153.125,-205.7181 1153.125,-205.7181"/>
<polygon fill="#000000" stroke="#000000" points="1149.6251,-205.718 1153.125,-215.7181 1156.6251,-205.7181 1149.6251,-205.718"/>
</g>
<!-- MatIconModule  -->
<g id="node16" class="node">
<title>MatIconModule </title>
<polygon fill="#fb8072" stroke="#000000" points="1111.4758,-252 1000.5242,-252 1000.5242,-216 1111.4758,-216 1111.4758,-252"/>
<text text-anchor="middle" x="1056" y="-229.8" font-family="Times,serif" font-size="14.00" fill="#000000">MatIconModule </text>
</g>
<!-- AppMaterialModule&#45;&gt;MatIconModule  -->
<g id="edge15" class="edge">
<title>AppMaterialModule&#45;&gt;MatIconModule </title>
<path fill="none" stroke="#000000" stroke-dasharray="5,2" d="M892.7518,-184C948.5538,-184 1019.625,-184 1019.625,-184 1019.625,-184 1019.625,-205.9489 1019.625,-205.9489"/>
<polygon fill="#000000" stroke="#000000" points="1016.1251,-205.9488 1019.625,-215.9489 1023.1251,-205.9489 1016.1251,-205.9488"/>
</g>
<!-- MatProgressSpinnerModule  -->
<g id="node17" class="node">
<title>MatProgressSpinnerModule </title>
<polygon fill="#fb8072" stroke="#000000" points="982.856,-252 805.144,-252 805.144,-216 982.856,-216 982.856,-252"/>
<text text-anchor="middle" x="894" y="-229.8" font-family="Times,serif" font-size="14.00" fill="#000000">MatProgressSpinnerModule </text>
</g>
<!-- AppMaterialModule&#45;&gt;MatProgressSpinnerModule  -->
<g id="edge16" class="edge">
<title>AppMaterialModule&#45;&gt;MatProgressSpinnerModule </title>
<path fill="none" stroke="#000000" stroke-dasharray="5,2" d="M848.9304,-187.1061C848.9304,-187.1061 848.9304,-205.991 848.9304,-205.991"/>
<polygon fill="#000000" stroke="#000000" points="845.4305,-205.9909 848.9304,-215.991 852.4305,-205.991 845.4305,-205.9909"/>
</g>
<!-- MatSidenavModule  -->
<g id="node18" class="node">
<title>MatSidenavModule </title>
<polygon fill="#fb8072" stroke="#000000" points="787.2023,-252 656.7977,-252 656.7977,-216 787.2023,-216 787.2023,-252"/>
<text text-anchor="middle" x="722" y="-229.8" font-family="Times,serif" font-size="14.00" fill="#000000">MatSidenavModule </text>
</g>
<!-- AppMaterialModule&#45;&gt;MatSidenavModule  -->
<g id="edge17" class="edge">
<title>AppMaterialModule&#45;&gt;MatSidenavModule </title>
<path fill="none" stroke="#000000" stroke-dasharray="5,2" d="M774.4062,-187.1061C774.4062,-187.1061 774.4062,-205.991 774.4062,-205.991"/>
<polygon fill="#000000" stroke="#000000" points="770.9063,-205.9909 774.4062,-215.991 777.9063,-205.991 770.9063,-205.9909"/>
</g>
<!-- MatListModule  -->
<g id="node19" class="node">
<title>MatListModule </title>
<polygon fill="#fb8072" stroke="#000000" points="638.8787,-252 531.1213,-252 531.1213,-216 638.8787,-216 638.8787,-252"/>
<text text-anchor="middle" x="585" y="-229.8" font-family="Times,serif" font-size="14.00" fill="#000000">MatListModule </text>
</g>
<!-- AppMaterialModule&#45;&gt;MatListModule  -->
<g id="edge18" class="edge">
<title>AppMaterialModule&#45;&gt;MatListModule </title>
<path fill="none" stroke="#000000" stroke-dasharray="5,2" d="M761.2761,-184C699.5259,-184 616.544,-184 616.544,-184 616.544,-184 616.544,-205.9489 616.544,-205.9489"/>
<polygon fill="#000000" stroke="#000000" points="613.0441,-205.9488 616.544,-215.9489 620.0441,-205.9489 613.0441,-205.9488"/>
</g>
<!-- MatCardModule  -->
<g id="node20" class="node">
<title>MatCardModule </title>
<polygon fill="#fb8072" stroke="#000000" points="513.3116,-252 400.6884,-252 400.6884,-216 513.3116,-216 513.3116,-252"/>
<text text-anchor="middle" x="457" y="-229.8" font-family="Times,serif" font-size="14.00" fill="#000000">MatCardModule </text>
</g>
<!-- AppMaterialModule&#45;&gt;MatCardModule  -->
<g id="edge19" class="edge">
<title>AppMaterialModule&#45;&gt;MatCardModule </title>
<path fill="none" stroke="#000000" stroke-dasharray="5,2" d="M761.3585,-180C664.0112,-180 492.7334,-180 492.7334,-180 492.7334,-180 492.7334,-205.7181 492.7334,-205.7181"/>
<polygon fill="#000000" stroke="#000000" points="489.2334,-205.718 492.7334,-215.7181 496.2334,-205.7181 489.2334,-205.718"/>
</g>
<!-- MatFormFieldModule  -->
<g id="node21" class="node">
<title>MatFormFieldModule </title>
<polygon fill="#fb8072" stroke="#000000" points="382.2121,-252 237.7879,-252 237.7879,-216 382.2121,-216 382.2121,-252"/>
<text text-anchor="middle" x="310" y="-229.8" font-family="Times,serif" font-size="14.00" fill="#000000">MatFormFieldModule </text>
</g>
<!-- AppMaterialModule&#45;&gt;MatFormFieldModule  -->
<g id="edge20" class="edge">
<title>AppMaterialModule&#45;&gt;MatFormFieldModule </title>
<path fill="none" stroke="#000000" stroke-dasharray="5,2" d="M761.0627,-177C633.0572,-177 363.3501,-177 363.3501,-177 363.3501,-177 363.3501,-205.9648 363.3501,-205.9648"/>
<polygon fill="#000000" stroke="#000000" points="359.8502,-205.9648 363.3501,-215.9648 366.8502,-205.9649 359.8502,-205.9648"/>
</g>
<!-- MatDatepickerModule  -->
<g id="node22" class="node">
<title>MatDatepickerModule </title>
<polygon fill="#fb8072" stroke="#000000" points="219.5064,-252 72.4936,-252 72.4936,-216 219.5064,-216 219.5064,-252"/>
<text text-anchor="middle" x="146" y="-229.8" font-family="Times,serif" font-size="14.00" fill="#000000">MatDatepickerModule </text>
</g>
<!-- AppMaterialModule&#45;&gt;MatDatepickerModule  -->
<g id="edge21" class="edge">
<title>AppMaterialModule&#45;&gt;MatDatepickerModule </title>
<path fill="none" stroke="#000000" stroke-dasharray="5,2" d="M761.3425,-173C600.9913,-173 202.4487,-173 202.4487,-173 202.4487,-173 202.4487,-205.698 202.4487,-205.698"/>
<polygon fill="#000000" stroke="#000000" points="198.9487,-205.698 202.4486,-215.698 205.9487,-205.698 198.9487,-205.698"/>
</g>
</g>
</svg>
