<?xml version="1.0" encoding="utf-8"?>
<!-- Generator: Adobe Illustrator 19.0.0, SVG Export Plug-In . SVG Version: 6.00 Build 0)  -->
<svg version="1.1" id="Layer_1" xmlns="http://www.w3.org/2000/svg" xmlns:xlink="http://www.w3.org/1999/xlink" x="0px" y="0px"
	 width="600px" height="600px" viewBox="0 0 600 600" enable-background="new 0 0 600 600" xml:space="preserve">
<path id="color_x5F_1" fill="#000000" d="M337.804,424.2c2.225,5.558-4.144,13.336-14.226,17.373
	c-10.082,4.037-20.059,2.805-22.285-2.753c-2.225-5.558,4.144-13.336,14.226-17.373C325.601,417.409,335.579,418.642,337.804,424.2z
	 M599.975,308.42c-0.722,26.098-16.719,46.829-35.731,46.303c-7.567-0.209-14.462-3.76-19.978-9.604
	c-10.628-11.26-28.651-19.318-49.383-22.032c-2.948-0.386-5.652,1.707-6.08,4.65l0,0c-0.372,2.559,1.108,5.031,3.541,5.909
	c8.537,3.082,13.259,5.021,25.06,9.082c16.082,5.536,7.132,30.376-8.954,24.84c-10.22-3.517-14.613-5.287-21.314-7.749
	c-2.857-1.049-6.016,0.446-7.023,3.318c-2.162,6.168-4.633,12.19-7.393,18.049c-1.081,2.294-0.396,5.032,1.619,6.571
	c7.676,5.864,15.352,11.728,23.028,17.592c13.478,10.297-1.43,32.09-14.959,21.753c-6.867-5.247-13.735-10.493-20.602-15.739
	c-2.41-1.842-5.864-1.343-7.655,1.105l-0.086,0.117c-2.83,3.869-1.75,9.321,2.332,11.834c13.919,8.571,34.498,19.88,45.962,19.724
	c8.034-0.109,15.384,2.368,20.802,7.654c13.613,13.281,9.87,39.197-8.362,57.885c-18.232,18.688-44.047,23.071-57.662,9.79
	c-5.418-5.286-8.076-12.572-8.165-20.607c-0.108-9.664-8.65-25.728-16.753-38.825c-4.635-7.491-14.651-9.481-21.832-4.378
	l-0.168,0.119c-2.092,1.486-2.839,4.245-1.797,6.589c3.554,7.998,5.689,13.629,11.352,25.143
	c7.523,15.296-16.268,26.755-23.756,11.533c-5.109-10.386-7.088-15.557-10.071-22.399c-1.214-2.786-4.475-4.032-7.243-2.776
	c-4.473,2.029-9.038,3.89-13.688,5.576c-7.087,2.57-10.835,10.427-8.171,17.48c6.197,16.404,15.731,29.757,26.747,37.313
	c6.627,4.545,11.202,10.807,12.579,18.251c3.46,18.702-14.546,37.713-40.218,42.463c-0.229,0.042-0.454,0.06-0.681,0.1
	c-0.227,0.045-0.444,0.108-0.672,0.15c-25.672,4.751-49.289-6.559-52.75-25.26c-1.378-7.443,0.654-14.929,5.215-21.544
	c6.719-9.745,10.717-23.323,11.48-38.49c0.528-10.5-7.853-19.098-18.366-19.093l-0.179,0c-3.923,0-7.817-0.123-11.68-0.36
	c-5.592-0.344-10.395,3.911-10.65,9.508c-0.772,16.937-1.543,33.874-2.315,50.81c-0.773,16.992-27.081,14.685-26.309-2.269
	c0.847-18.607,1.695-37.213,2.543-55.82c0.209-4.597-2.725-8.751-7.128-10.09l-0.075-0.023c-3.454-0.771-6.837-1.633-10.13-2.608
	c-7.247,13.345-14.496,26.69-21.744,40.035c-8.114,14.939-29.791-0.159-21.752-14.96l16.326-30.06
	c1.405-2.587,0.442-5.865-2.13-7.298c-2.761-1.538-5.449-3.155-8.063-4.847c-9.894-6.404-23.152-3.027-28.583,7.433
	c-6.159,11.861-9.372,23.884-9.057,34.505c0.239,8.032-2.119,15.421-7.318,20.923c-13.061,13.826-39.034,10.498-58.013-7.431
	c-18.979-17.929-23.776-43.671-10.715-57.497c5.198-5.502,12.441-8.277,20.474-8.496c11.221-0.305,23.768-4.652,35.856-12.223
	c9.778-6.124,12.259-19.306,5.521-28.671c-0.059-0.083-0.118-0.164-0.176-0.245c-1.459-2.028-4.138-2.75-6.427-1.747
	c-9.651,4.228-14.796,6.453-27.086,11.855c-15.567,6.84-27.08-16.923-11.533-23.755c10.87-4.777,16.296-7.135,24.026-10.516
	c2.779-1.216,4.017-4.472,2.748-7.227c-1.369-2.972-2.665-5.985-3.883-9.037c-0.864-2.163-3.051-3.5-5.375-3.339
	c-16.445,1.139-32.89,2.279-49.334,3.418c-16.782,1.163-21.724-24.787-4.804-25.96c14.769-1.023,29.538-2.046,44.307-3.07
	c3.229-0.224,5.543-3.206,4.935-6.461l-0.051-0.276c-2.219-11.878-13.929-19.45-25.685-16.658
	c-13.554,3.218-27.246,7.64-33.097,13.189c-5.831,5.53-12.911,8.694-20.478,8.485C14.13,339.512-0.697,317.929,0.025,291.83
	c0.722-26.099,16.718-46.829,35.73-46.304c7.568,0.209,14.462,3.761,19.978,9.604c5.489,5.815,18.881,10.953,32.286,14.907
	c11.616,3.426,23.713-3.584,26.584-15.349c0.663-2.716,1.383-5.41,2.161-8.079c0.769-2.642-0.587-5.435-3.131-6.484
	c-9.224-3.806-18.448-7.612-27.671-11.418c-15.669-6.465-6.797-31.339,8.954-24.839c9.445,3.896,18.889,7.793,28.333,11.69
	c2.596,1.071,5.579-0.025,6.861-2.524c2.715-5.292,5.671-10.439,8.852-15.429c6.145-9.638,3.114-22.136-6.795-27.834
	c-12.612-7.252-26.29-13.777-34.527-13.665c-8.035,0.109-15.385-2.368-20.802-7.654c-13.613-13.281-9.869-39.197,8.363-57.885
	c18.232-18.688,44.048-23.071,57.661-9.79c5.419,5.286,8.076,12.573,8.166,20.607c0.091,8.171,6.942,21.632,14.542,34.085
	c5.881,9.637,18.572,12.478,27.94,6.178l0.272-0.183c2.342-1.575,3.076-4.688,1.683-7.143c-2.44-4.297-4.953-8.741-8.801-15.854
	c-8.117-15.004,15.704-26.415,23.755-11.533c3.626,6.703,6.042,10.986,8.337,15.025c1.348,2.373,4.256,3.372,6.768,2.307
	c2.701-1.145,5.435-2.23,8.198-3.252c6.85-2.534,10.171-10.284,7.296-16.998c-6.652-15.536-15.419-32.88-23.26-38.258
	c-6.627-4.545-11.201-10.808-12.579-18.252c-3.46-18.702,14.546-37.713,40.22-42.463c0.228-0.042,0.452-0.06,0.68-0.101
	c0.228-0.044,0.444-0.107,0.672-0.15c25.673-4.751,49.289,6.559,52.75,25.26c1.378,7.444-0.654,14.929-5.216,21.544
	c-5.357,7.77-7.358,26.821-8.035,43.565c-0.312,7.703,5.899,14.023,13.608,14.018c0.047,0,0.095,0,0.142,0
	c7.585,0,15.066,0.446,22.42,1.309c3.359,0.394,6.403-1.981,6.804-5.339c1.474-12.344,2.963-25.681,4.497-42.158
	c1.576-16.916,27.887-14.676,26.31,2.269c-1.751,18.813-3.444,33.537-5.123,47.358c-0.308,2.536,1.214,4.944,3.646,5.727
	c4.161,1.34,8.261,2.818,12.292,4.43c2.649,1.059,5.665-0.114,6.911-2.68c4.385-9.03,6.551-13.936,13.316-27.386
	c7.545-15.001,32.474-6.222,24.839,8.955c-7.471,14.854-9.63,19.843-14.94,30.683c-1.208,2.466-0.375,5.448,1.935,6.932l0.198,0.127
	c9.328,5.994,21.781,2.865,27.179-6.82c7.075-12.696,10.802-25.711,10.463-37.113c-0.238-8.032,2.121-15.421,7.32-20.924
	c13.06-13.825,39.033-10.498,58.012,7.431c18.978,17.93,23.776,43.671,10.716,57.497c-5.199,5.503-12.442,8.277-20.474,8.496
	c-11.471,0.312-24.339,4.822-36.681,12.692c-9.294,5.927-11.576,18.471-5.102,27.393c0.697,0.96,1.385,1.928,2.064,2.901
	c1.735,2.487,5.174,3.058,7.62,1.264c8.352-6.124,16.703-12.249,25.055-18.374c13.654-10.012,30.947,9.947,17.25,19.991
	c-10.106,7.411-20.212,14.822-30.318,22.232c-2.041,1.496-2.781,4.212-1.753,6.524c2.708,6.094,5.105,12.357,7.173,18.768
	c0.876,2.716,3.705,4.29,6.478,3.615c8.455-2.058,14.165-3.293,26.09-6.392c16.477-4.283,21.153,21.71,4.804,25.959
	c-11.85,3.079-17.024,4.156-25.496,6.223c-2.668,0.651-4.434,3.195-4.104,5.922l0.02,0.162c0.802,6.625,6.891,11.275,13.501,10.362
	c17.917-2.477,33.514-9.086,43.461-18.52c5.829-5.53,12.911-8.695,20.477-8.486C585.869,260.739,600.695,282.322,599.975,308.42z
	 M193.482,363.542c-0.152-8.769-3.113-16.738-6.021-25.009c-3.013-8.571-9.511-13.532-13.208-20.963
	c-3.283-6.6-2.634-16.227-0.188-22.908c2.785-7.607,10.643-12.924,7.183-21.621c-2.624-6.596-10.579-9.913-13.439-16.781
	c-3.799-9.124-4.995-14.058-13.025-20.871c-27.083,57.34-14.792,137.598,35.78,178.591
	C190.565,397.151,193.774,380.295,193.482,363.542z M399.337,358.445c-3.378-11.128-2.76-16.808-0.121-25.369
	c1.489-4.83-1.247-9.943-6.097-11.365c-4.262-1.25-8.145-2.504-13.919-2.468c-9.599,0.061-17.974-0.84-25.398-7.758
	c-6.902-6.432-10.044-15.504-9.532-24.81c0.477-8.672,0.579-21.113,5.752-28.406c4.821-6.797,17.236-14.671,25.02-17.756
	c8.782-3.48,13.826-0.935,22.45,0.481c4.156,0.683,7.469-1.186,11.873,0.661c3.875,1.625,6.074,5.519,9.218,8.013
	c6.729,5.339,9.936,5.719,15.842,3.049c2.625-1.187,3.17-4.688,1.073-6.664c-6.544-6.168-13.089-12.337-19.634-18.505
	c-1.779-1.677-4.625-1.422-6.077,0.545l-3.681,4.984c-1.161,1.572-3.6,1.194-4.248-0.649c-1.208-3.436-2.559-6.557-4.213-9.644
	c-1.683-3.141-6.303-2.854-7.47,0.512c-2.135,6.158-4.772,11.445-12.489,10.974c-8.797-0.537-13.27-7.557-15.466-15.096
	c-0.742-2.548,1.141-5.108,3.794-5.187c8.106-0.24,17.487-1.028,20.832-8.994c3.395-8.086-3.641-16.889-10.524-20.442
	c-4.407-2.275-17.015-5.542-9.943-15.194c4.372-5.967,17.491-2.098,23.473-1.504c-14.844-8.159-32.006-21.827-49.667-16.288
	c-4.994,1.566-8.88,3.576-14.201,4.653c-4.935,0.998-9.393,0.789-13.823,3.887c-4.388,3.069-6.682,7.816-9.456,12.22
	c-1.514,2.405-5.087,2.229-6.344-0.32c-4.855-9.844-5.473-20.326,0.389-30.589h-8.321c2.678,2.999-0.489,6.62-3.623,9.068
	c-5.986,4.675-8.104,1.95-16.495,2.016c-12.204,0.096-27.356,5.091-23.002,20.69c9.919-4.319,19.839-8.638,29.758-12.958
	c0.427,4.437,0.249,8.062,1.466,12.266c0.924,3.193,4.619,3.957,3.626,8.238c-1.756,7.571-16.802,4.708-23.08,6.524
	c-5.055,1.462-10.389,2.118-15.339,3.902c-4.132,1.489-7.484,5.028-11.288,6.408c-8.28,3.002-13.917-1.688-18.761,8.555
	c-2.232,4.72-1.098,17.627-6.109,18.262c-2.985,0.379-7.262-15.609-14.332-16.915c-9.198-1.7-21.257,6.539-22.691,15.614
	c-1.496,9.472,4.572,9.865,11.47,10.99c1.773,0.289,2.697,2.242,1.823,3.812c-4.445,7.986-4.847,23.972,3.959,27.668
	c6.435,2.701,12.416-6.292,20.291-3.897c7.927,2.41,16.853,9.131,24.276,13.036c10.97,5.771,13.014,8.144,18.729,18.591
	c4.882,8.925,11.03,15.61,19.626,21.057c9.17,5.81,16.116,7.66,9.805,19.262c-4.164,7.655-10.789,19.275-17.296,25.29
	c-6.885,6.366-15.698,5.308-22.328,12.083c-6.666,6.812-10.213,15.973-17.791,22.259c-7.855,6.516-14.614,8.964-15.546,20.519
	c-1.736,21.523,23.974,30.184,40.453,36.141c46.073,16.654,96.795,10.084,138.478-14.89c-12.217-5.917-2.485-16.59,1.11-24.789
	c1.627-3.711,3.395-6.14,3.189-10.355c-0.312-6.391-4.542-8.883-1.882-16.001C391.476,371.68,403.519,372.227,399.337,358.445z
	 M375.449,280.214c-2.797-0.937-6.411,2.326-8.073,7.287c-1.662,4.961-0.742,9.743,2.055,10.68c2.797,0.937,6.411-2.326,8.073-7.287
	C379.166,285.932,378.246,281.151,375.449,280.214z M419.504,287.323c2.723-8.13,1.215-15.964-3.367-17.499
	c-4.583-1.535-10.505,3.811-13.228,11.941c-2.723,8.13-1.215,15.964,3.367,17.499C410.859,300.799,416.781,295.453,419.504,287.323z
	 M434.397,369.834c-5.347-2.713-14.842,2.944-21.208,12.636c-6.367,9.692-7.194,19.748-1.847,22.461
	c5.347,2.713,14.842-2.944,21.209-12.636C438.917,382.603,439.744,372.547,434.397,369.834z M436.467,322.178
	c-3.16-1.06-7.49,3.372-9.673,9.9c-2.183,6.528-1.391,12.679,1.769,13.739c3.16,1.06,7.49-3.372,9.673-9.9
	C440.418,329.389,439.626,323.238,436.467,322.178z M438.132,199.354c-5.01-7.615-12.55-11.499-16.843-8.675
	c-4.293,2.824-3.711,11.286,1.298,18.901c5.01,7.615,12.551,11.499,16.843,8.675C443.723,215.431,443.142,206.969,438.132,199.354z
	 M456.504,259.694c-5.878-1.33-12.207,5.48-14.137,15.212c-1.93,9.732,1.271,18.699,7.148,20.03
	c5.878,1.33,12.207-5.48,14.137-15.212C465.582,269.992,462.382,261.025,456.504,259.694z M332.382,384.404
	c-4.937,4.457-6.907,10.322-4.4,13.099c2.507,2.777,8.542,1.415,13.479-3.042c4.937-4.457,6.907-10.322,4.4-13.099
	C343.354,378.585,337.319,379.947,332.382,384.404z M277.825,395.206c-4.158-1.42-8.628,0.648-9.984,4.62
	c-1.357,3.972,0.914,8.343,5.071,9.763c4.158,1.42,8.628-0.648,9.985-4.62C284.253,400.997,281.982,396.626,277.825,395.206z
	 M242.539,408.643c-6.652-3.841-14.206-3.21-16.872,1.407c-2.666,4.618,0.565,11.475,7.217,15.315
	c6.652,3.841,14.206,3.211,16.872-1.407C252.422,419.34,249.191,412.483,242.539,408.643z M165.714,355.439
	c-3.749,2.447-4.357,8.154-1.359,12.748c2.998,4.594,8.468,6.334,12.217,3.887c3.749-2.447,4.357-8.154,1.359-12.748
	C174.932,354.732,169.462,352.992,165.714,355.439z M378.784,339.481c-5.53-2.712-13.469,2.139-17.733,10.835
	c-4.263,8.695-3.237,17.942,2.294,20.654c5.53,2.711,13.469-2.139,17.733-10.835C385.341,351.439,384.314,342.192,378.784,339.481z
	 M352.384,192.822c3.501-3.501,1.876-10.801-3.628-16.305c-5.504-5.504-12.804-7.129-16.305-3.628
	c-3.501,3.501-1.876,10.801,3.628,16.305C341.584,194.699,348.884,196.323,352.384,192.822z"/>
</svg>
