<?xml version="1.0" encoding="UTF-8" standalone="no"?>
<!DOCTYPE svg PUBLIC "-//W3C//DTD SVG 1.1//EN"
 "http://www.w3.org/Graphics/SVG/1.1/DTD/svg11.dtd">
<!-- Generated by graphviz version 2.40.1 (20161225.0304)
 -->
<!-- Title: dependencies Pages: 1 -->
<svg width="1644pt" height="211pt"
 viewBox="0.00 0.00 1644.00 211.00" xmlns="http://www.w3.org/2000/svg" xmlns:xlink="http://www.w3.org/1999/xlink">
<g id="graph0" class="graph" transform="scale(1 1) rotate(0) translate(4 207)">
<title>dependencies</title>
<polygon fill="#ffffff" stroke="transparent" points="-4,4 -4,-207 1640,-207 1640,4 -4,4"/>
<text text-anchor="start" x="797.0091" y="-42.4" font-family="sans-serif" font-weight="bold" font-size="14.00" fill="#000000">Legend</text>
<polygon fill="#ffffb3" stroke="transparent" points="584,-10 584,-30 604,-30 604,-10 584,-10"/>
<text text-anchor="start" x="607.629" y="-15.4" font-family="sans-serif" font-size="14.00" fill="#000000"> &#160;Declarations</text>
<polygon fill="#8dd3c7" stroke="transparent" points="697,-10 697,-30 717,-30 717,-10 697,-10"/>
<text text-anchor="start" x="720.7251" y="-15.4" font-family="sans-serif" font-size="14.00" fill="#000000"> &#160;Module</text>
<polygon fill="#80b1d3" stroke="transparent" points="783,-10 783,-30 803,-30 803,-10 783,-10"/>
<text text-anchor="start" x="806.7812" y="-15.4" font-family="sans-serif" font-size="14.00" fill="#000000"> &#160;Bootstrap</text>
<polygon fill="#fdb462" stroke="transparent" points="880,-10 880,-30 900,-30 900,-10 880,-10"/>
<text text-anchor="start" x="903.6732" y="-15.4" font-family="sans-serif" font-size="14.00" fill="#000000"> &#160;Providers</text>
<polygon fill="#fb8072" stroke="transparent" points="976,-10 976,-30 996,-30 996,-10 976,-10"/>
<text text-anchor="start" x="999.7258" y="-15.4" font-family="sans-serif" font-size="14.00" fill="#000000"> &#160;Exports</text>
<g id="clust1" class="cluster">
<title>cluster_StatisticsModule</title>
<polygon fill="none" stroke="#000000" stroke-dasharray="1,5" points="8,-70 8,-195 1628,-195 1628,-70 8,-70"/>
</g>
<g id="clust2" class="cluster">
<title>cluster_StatisticsModule_declarations</title>
<polygon fill="none" stroke="#000000" points="1158,-78 1158,-130 1620,-130 1620,-78 1158,-78"/>
</g>
<g id="clust6" class="cluster">
<title>cluster_StatisticsModule_imports</title>
<polygon fill="none" stroke="#000000" points="148,-78 148,-130 1150,-130 1150,-78 148,-78"/>
</g>
<g id="clust9" class="cluster">
<title>cluster_StatisticsModule_providers</title>
<polygon fill="none" stroke="#000000" points="16,-78 16,-130 140,-130 140,-78 16,-78"/>
</g>
<!-- StatisticsComponent -->
<g id="node1" class="node">
<title>StatisticsComponent</title>
<polygon fill="#ffffb3" stroke="#000000" points="1611.8864,-122 1480.1136,-122 1480.1136,-86 1611.8864,-86 1611.8864,-122"/>
<text text-anchor="middle" x="1546" y="-99.8" font-family="Times,serif" font-size="14.00" fill="#000000">StatisticsComponent</text>
</g>
<!-- StatisticsModule -->
<g id="node4" class="node">
<title>StatisticsModule</title>
<polygon fill="#8dd3c7" stroke="#000000" points="829.1038,-187 826.1038,-191 805.1038,-191 802.1038,-187 718.8962,-187 718.8962,-151 829.1038,-151 829.1038,-187"/>
<text text-anchor="middle" x="774" y="-164.8" font-family="Times,serif" font-size="14.00" fill="#000000">StatisticsModule</text>
</g>
<!-- StatisticsComponent&#45;&gt;StatisticsModule -->
<g id="edge1" class="edge">
<title>StatisticsComponent&#45;&gt;StatisticsModule</title>
<path fill="none" stroke="#000000" d="M1546,-122.0908C1546,-145.1328 1546,-182 1546,-182 1546,-182 839.2105,-182 839.2105,-182"/>
<polygon fill="#000000" stroke="#000000" points="839.2106,-178.5001 829.2105,-182 839.2105,-185.5001 839.2106,-178.5001"/>
</g>
<!-- DashboardComponent -->
<g id="node2" class="node">
<title>DashboardComponent</title>
<polygon fill="#ffffb3" stroke="#000000" points="1461.9734,-122 1320.0266,-122 1320.0266,-86 1461.9734,-86 1461.9734,-122"/>
<text text-anchor="middle" x="1391" y="-99.8" font-family="Times,serif" font-size="14.00" fill="#000000">DashboardComponent</text>
</g>
<!-- DashboardComponent&#45;&gt;StatisticsModule -->
<g id="edge2" class="edge">
<title>DashboardComponent&#45;&gt;StatisticsModule</title>
<path fill="none" stroke="#000000" d="M1391,-122.2843C1391,-143.3211 1391,-175 1391,-175 1391,-175 839.2976,-175 839.2976,-175"/>
<polygon fill="#000000" stroke="#000000" points="839.2977,-171.5001 829.2976,-175 839.2976,-178.5001 839.2977,-171.5001"/>
</g>
<!-- HistoricalComponent -->
<g id="node3" class="node">
<title>HistoricalComponent</title>
<polygon fill="#ffffb3" stroke="#000000" points="1302.0366,-122 1165.9634,-122 1165.9634,-86 1302.0366,-86 1302.0366,-122"/>
<text text-anchor="middle" x="1234" y="-99.8" font-family="Times,serif" font-size="14.00" fill="#000000">HistoricalComponent</text>
</g>
<!-- HistoricalComponent&#45;&gt;StatisticsModule -->
<g id="edge3" class="edge">
<title>HistoricalComponent&#45;&gt;StatisticsModule</title>
<path fill="none" stroke="#000000" d="M1234,-122.1061C1234,-141.3391 1234,-169 1234,-169 1234,-169 839.4867,-169 839.4867,-169"/>
<polygon fill="#000000" stroke="#000000" points="839.4868,-165.5001 829.4867,-169 839.4867,-172.5001 839.4868,-165.5001"/>
</g>
<!-- CommonModule -->
<g id="node5" class="node">
<title>CommonModule</title>
<polygon fill="#8dd3c7" stroke="#000000" points="1141.6681,-122 1138.6681,-126 1117.6681,-126 1114.6681,-122 1030.3319,-122 1030.3319,-86 1141.6681,-86 1141.6681,-122"/>
<text text-anchor="middle" x="1086" y="-99.8" font-family="Times,serif" font-size="14.00" fill="#000000">CommonModule</text>
</g>
<!-- CommonModule&#45;&gt;StatisticsModule -->
<g id="edge4" class="edge">
<title>CommonModule&#45;&gt;StatisticsModule</title>
<path fill="none" stroke="#000000" d="M1086,-122.0225C1086,-139.3734 1086,-163 1086,-163 1086,-163 839.0611,-163 839.0611,-163"/>
<polygon fill="#000000" stroke="#000000" points="839.0612,-159.5001 829.0611,-163 839.0611,-166.5001 839.0612,-159.5001"/>
</g>
<!-- StatisticsRoutingModule -->
<g id="node6" class="node">
<title>StatisticsRoutingModule</title>
<polygon fill="#8dd3c7" stroke="#000000" points="1012.7218,-122 1009.7218,-126 988.7218,-126 985.7218,-122 857.2782,-122 857.2782,-86 1012.7218,-86 1012.7218,-122"/>
<text text-anchor="middle" x="935" y="-99.8" font-family="Times,serif" font-size="14.00" fill="#000000">StatisticsRoutingModule</text>
</g>
<!-- StatisticsRoutingModule&#45;&gt;StatisticsModule -->
<g id="edge5" class="edge">
<title>StatisticsRoutingModule&#45;&gt;StatisticsModule</title>
<path fill="none" stroke="#000000" d="M935,-122.2396C935,-137.5706 935,-157 935,-157 935,-157 839.4071,-157 839.4071,-157"/>
<polygon fill="#000000" stroke="#000000" points="839.4071,-153.5001 829.4071,-157 839.407,-160.5001 839.4071,-153.5001"/>
</g>
<!-- AppMaterialModule -->
<g id="node7" class="node">
<title>AppMaterialModule</title>
<polygon fill="#8dd3c7" stroke="#000000" points="839.5772,-122 836.5772,-126 815.5772,-126 812.5772,-122 708.4228,-122 708.4228,-86 839.5772,-86 839.5772,-122"/>
<text text-anchor="middle" x="774" y="-99.8" font-family="Times,serif" font-size="14.00" fill="#000000">AppMaterialModule</text>
</g>
<!-- AppMaterialModule&#45;&gt;StatisticsModule -->
<g id="edge6" class="edge">
<title>AppMaterialModule&#45;&gt;StatisticsModule</title>
<path fill="none" stroke="#000000" d="M774,-122.1061C774,-122.1061 774,-140.991 774,-140.991"/>
<polygon fill="#000000" stroke="#000000" points="770.5001,-140.9909 774,-150.991 777.5001,-140.991 770.5001,-140.9909"/>
</g>
<!-- FlexLayoutModule -->
<g id="node8" class="node">
<title>FlexLayoutModule</title>
<polygon fill="#8dd3c7" stroke="#000000" points="690.0954,-122 687.0954,-126 666.0954,-126 663.0954,-122 565.9046,-122 565.9046,-86 690.0954,-86 690.0954,-122"/>
<text text-anchor="middle" x="628" y="-99.8" font-family="Times,serif" font-size="14.00" fill="#000000">FlexLayoutModule</text>
</g>
<!-- FlexLayoutModule&#45;&gt;StatisticsModule -->
<g id="edge7" class="edge">
<title>FlexLayoutModule&#45;&gt;StatisticsModule</title>
<path fill="none" stroke="#000000" d="M628,-122.2396C628,-137.5706 628,-157 628,-157 628,-157 708.8037,-157 708.8037,-157"/>
<polygon fill="#000000" stroke="#000000" points="708.8037,-160.5001 718.8037,-157 708.8036,-153.5001 708.8037,-160.5001"/>
</g>
<!-- FontAwesomeModule -->
<g id="node9" class="node">
<title>FontAwesomeModule</title>
<polygon fill="#8dd3c7" stroke="#000000" points="547.7007,-122 544.7007,-126 523.7007,-126 520.7007,-122 406.2993,-122 406.2993,-86 547.7007,-86 547.7007,-122"/>
<text text-anchor="middle" x="477" y="-99.8" font-family="Times,serif" font-size="14.00" fill="#000000">FontAwesomeModule</text>
</g>
<!-- FontAwesomeModule&#45;&gt;StatisticsModule -->
<g id="edge8" class="edge">
<title>FontAwesomeModule&#45;&gt;StatisticsModule</title>
<path fill="none" stroke="#000000" d="M477,-122.0225C477,-139.3734 477,-163 477,-163 477,-163 708.8326,-163 708.8326,-163"/>
<polygon fill="#000000" stroke="#000000" points="708.8327,-166.5001 718.8326,-163 708.8326,-159.5001 708.8327,-166.5001"/>
</g>
<!-- HttpClientModule -->
<g id="node10" class="node">
<title>HttpClientModule</title>
<polygon fill="#8dd3c7" stroke="#000000" points="388.1611,-122 385.1611,-126 364.1611,-126 361.1611,-122 269.8389,-122 269.8389,-86 388.1611,-86 388.1611,-122"/>
<text text-anchor="middle" x="329" y="-99.8" font-family="Times,serif" font-size="14.00" fill="#000000">HttpClientModule</text>
</g>
<!-- HttpClientModule&#45;&gt;StatisticsModule -->
<g id="edge9" class="edge">
<title>HttpClientModule&#45;&gt;StatisticsModule</title>
<path fill="none" stroke="#000000" d="M329,-122.1061C329,-141.3391 329,-169 329,-169 329,-169 708.5402,-169 708.5402,-169"/>
<polygon fill="#000000" stroke="#000000" points="708.5402,-172.5001 718.5402,-169 708.5402,-165.5001 708.5402,-172.5001"/>
</g>
<!-- ChartsModule -->
<g id="node11" class="node">
<title>ChartsModule</title>
<polygon fill="#8dd3c7" stroke="#000000" points="252.0968,-122 249.0968,-126 228.0968,-126 225.0968,-122 155.9032,-122 155.9032,-86 252.0968,-86 252.0968,-122"/>
<text text-anchor="middle" x="204" y="-99.8" font-family="Times,serif" font-size="14.00" fill="#000000">ChartsModule</text>
</g>
<!-- ChartsModule&#45;&gt;StatisticsModule -->
<g id="edge10" class="edge">
<title>ChartsModule&#45;&gt;StatisticsModule</title>
<path fill="none" stroke="#000000" d="M204,-122.2843C204,-143.3211 204,-175 204,-175 204,-175 708.8281,-175 708.8281,-175"/>
<polygon fill="#000000" stroke="#000000" points="708.8281,-178.5001 718.8281,-175 708.8281,-171.5001 708.8281,-178.5001"/>
</g>
<!-- ApiService -->
<g id="node12" class="node">
<title>ApiService</title>
<ellipse fill="#fdb462" stroke="#000000" cx="78" cy="-104" rx="54.4508" ry="18"/>
<text text-anchor="middle" x="78" y="-99.8" font-family="Times,serif" font-size="14.00" fill="#000000">ApiService</text>
</g>
<!-- ApiService&#45;&gt;StatisticsModule -->
<g id="edge11" class="edge">
<title>ApiService&#45;&gt;StatisticsModule</title>
<path fill="none" stroke="#000000" d="M78,-122.0908C78,-145.1328 78,-182 78,-182 78,-182 708.8043,-182 708.8043,-182"/>
<polygon fill="#000000" stroke="#000000" points="708.8043,-185.5001 718.8043,-182 708.8043,-178.5001 708.8043,-185.5001"/>
</g>
</g>
</svg>
