<?xml version="1.0" encoding="UTF-8" standalone="no"?>
<!DOCTYPE svg PUBLIC "-//W3C//DTD SVG 1.1//EN"
 "http://www.w3.org/Graphics/SVG/1.1/DTD/svg11.dtd">
<!-- Generated by graphviz version 2.40.1 (20161225.0304)
 -->
<!-- Title: dependencies Pages: 1 -->
<svg width="4451pt" height="355pt"
 viewBox="0.00 0.00 4451.00 355.00" xmlns="http://www.w3.org/2000/svg" xmlns:xlink="http://www.w3.org/1999/xlink">
<g id="graph0" class="graph" transform="scale(1 1) rotate(0) translate(4 351)">
<title>dependencies</title>
<polygon fill="#ffffff" stroke="transparent" points="-4,4 -4,-351 4447,-351 4447,4 -4,4"/>
<text text-anchor="start" x="2200.5091" y="-42.4" font-family="sans-serif" font-weight="bold" font-size="14.00" fill="#000000">Legend</text>
<polygon fill="#ffffb3" stroke="transparent" points="1987.5,-10 1987.5,-30 2007.5,-30 2007.5,-10 1987.5,-10"/>
<text text-anchor="start" x="2011.129" y="-15.4" font-family="sans-serif" font-size="14.00" fill="#000000"> &#160;Declarations</text>
<polygon fill="#8dd3c7" stroke="transparent" points="2100.5,-10 2100.5,-30 2120.5,-30 2120.5,-10 2100.5,-10"/>
<text text-anchor="start" x="2124.2251" y="-15.4" font-family="sans-serif" font-size="14.00" fill="#000000"> &#160;Module</text>
<polygon fill="#80b1d3" stroke="transparent" points="2186.5,-10 2186.5,-30 2206.5,-30 2206.5,-10 2186.5,-10"/>
<text text-anchor="start" x="2210.2812" y="-15.4" font-family="sans-serif" font-size="14.00" fill="#000000"> &#160;Bootstrap</text>
<polygon fill="#fdb462" stroke="transparent" points="2283.5,-10 2283.5,-30 2303.5,-30 2303.5,-10 2283.5,-10"/>
<text text-anchor="start" x="2307.1732" y="-15.4" font-family="sans-serif" font-size="14.00" fill="#000000"> &#160;Providers</text>
<polygon fill="#fb8072" stroke="transparent" points="2379.5,-10 2379.5,-30 2399.5,-30 2399.5,-10 2379.5,-10"/>
<text text-anchor="start" x="2403.2258" y="-15.4" font-family="sans-serif" font-size="14.00" fill="#000000"> &#160;Exports</text>
<g id="clust1" class="cluster">
<title>cluster_AppMaterialModule</title>
<polygon fill="none" stroke="#000000" stroke-dasharray="1,5" points="2843,-70 2843,-271 4435,-271 4435,-70 2843,-70"/>
</g>
<g id="clust3" class="cluster">
<title>cluster_AppMaterialModule_imports</title>
<polygon fill="none" stroke="#000000" points="2851,-78 2851,-130 4427,-130 4427,-78 2851,-78"/>
</g>
<g id="clust4" class="cluster">
<title>cluster_AppMaterialModule_exports</title>
<polygon fill="none" stroke="#000000" points="2851,-211 2851,-263 4331,-263 4331,-211 2851,-211"/>
</g>
<g id="clust7" class="cluster">
<title>cluster_AppModule</title>
<polygon fill="none" stroke="#000000" stroke-dasharray="1,5" points="920,-138 920,-339 2835,-339 2835,-138 920,-138"/>
</g>
<g id="clust8" class="cluster">
<title>cluster_AppModule_declarations</title>
<polygon fill="none" stroke="#000000" points="2285,-146 2285,-198 2827,-198 2827,-146 2285,-146"/>
</g>
<g id="clust13" class="cluster">
<title>cluster_AppModule_imports</title>
<polygon fill="none" stroke="#000000" points="928,-146 928,-198 2277,-198 2277,-146 928,-146"/>
</g>
<g id="clust15" class="cluster">
<title>cluster_AppModule_bootstrap</title>
<polygon fill="none" stroke="#000000" points="1974,-279 1974,-331 2098,-331 2098,-279 1974,-279"/>
</g>
<g id="clust17" class="cluster">
<title>cluster_StatisticsModule</title>
<polygon fill="none" stroke="#000000" stroke-dasharray="1,5" points="8,-138 8,-263 912,-263 912,-138 8,-138"/>
</g>
<g id="clust18" class="cluster">
<title>cluster_StatisticsModule_declarations</title>
<polygon fill="none" stroke="#000000" points="442,-146 442,-198 904,-198 904,-146 442,-146"/>
</g>
<g id="clust22" class="cluster">
<title>cluster_StatisticsModule_imports</title>
<polygon fill="none" stroke="#000000" points="148,-146 148,-198 434,-198 434,-146 148,-146"/>
</g>
<g id="clust25" class="cluster">
<title>cluster_StatisticsModule_providers</title>
<polygon fill="none" stroke="#000000" points="16,-146 16,-198 140,-198 140,-146 16,-146"/>
</g>
<!-- CommonModule -->
<g id="node1" class="node">
<title>CommonModule</title>
<polygon fill="#8dd3c7" stroke="#000000" points="2970.6681,-122 2967.6681,-126 2946.6681,-126 2943.6681,-122 2859.3319,-122 2859.3319,-86 2970.6681,-86 2970.6681,-122"/>
<text text-anchor="middle" x="2915" y="-99.8" font-family="Times,serif" font-size="14.00" fill="#000000">CommonModule</text>
</g>
<!-- AppMaterialModule -->
<g id="node12" class="node">
<title>AppMaterialModule</title>
<polygon fill="#8dd3c7" stroke="#000000" points="3597.5772,-190 3594.5772,-194 3573.5772,-194 3570.5772,-190 3466.4228,-190 3466.4228,-154 3597.5772,-154 3597.5772,-190"/>
<text text-anchor="middle" x="3532" y="-167.8" font-family="Times,serif" font-size="14.00" fill="#000000">AppMaterialModule</text>
</g>
<!-- CommonModule&#45;&gt;AppMaterialModule -->
<g id="edge1" class="edge">
<title>CommonModule&#45;&gt;AppMaterialModule</title>
<path fill="none" stroke="#000000" d="M2915,-122.1061C2915,-141.3391 2915,-169 2915,-169 2915,-169 3456.2625,-169 3456.2625,-169"/>
<polygon fill="#000000" stroke="#000000" points="3456.2626,-172.5001 3466.2625,-169 3456.2625,-165.5001 3456.2626,-172.5001"/>
</g>
<!-- StatisticsModule -->
<g id="node40" class="node">
<title>StatisticsModule</title>
<polygon fill="#8dd3c7" stroke="#000000" points="731.1038,-255 728.1038,-259 707.1038,-259 704.1038,-255 620.8962,-255 620.8962,-219 731.1038,-219 731.1038,-255"/>
<text text-anchor="middle" x="676" y="-232.8" font-family="Times,serif" font-size="14.00" fill="#000000">StatisticsModule</text>
</g>
<!-- CommonModule&#45;&gt;StatisticsModule -->
<g id="edge39" class="edge">
<title>CommonModule&#45;&gt;StatisticsModule</title>
<path fill="none" stroke="#000000" d="M2859.1324,-104C2652.1597,-104 1940.9515,-104 1940.9515,-104 1940.9515,-104 1940.9515,-252 1940.9515,-252 1940.9515,-252 741.1668,-252 741.1668,-252"/>
<polygon fill="#000000" stroke="#000000" points="741.1668,-248.5001 731.1668,-252 741.1667,-255.5001 741.1668,-248.5001"/>
</g>
<!-- MatToolbarModule -->
<g id="node2" class="node">
<title>MatToolbarModule</title>
<polygon fill="#8dd3c7" stroke="#000000" points="3703.4187,-122 3700.4187,-126 3679.4187,-126 3676.4187,-122 3576.5813,-122 3576.5813,-86 3703.4187,-86 3703.4187,-122"/>
<text text-anchor="middle" x="3640" y="-99.8" font-family="Times,serif" font-size="14.00" fill="#000000">MatToolbarModule</text>
</g>
<!-- MatToolbarModule&#45;&gt;AppMaterialModule -->
<g id="edge2" class="edge">
<title>MatToolbarModule&#45;&gt;AppMaterialModule</title>
<path fill="none" stroke="#000000" d="M3587.1648,-122.2228C3587.1648,-122.2228 3587.1648,-143.7269 3587.1648,-143.7269"/>
<polygon fill="#000000" stroke="#000000" points="3583.6649,-143.7269 3587.1648,-153.7269 3590.6649,-143.727 3583.6649,-143.7269"/>
</g>
<!-- MatMenuModule -->
<g id="node3" class="node">
<title>MatMenuModule</title>
<polygon fill="#8dd3c7" stroke="#000000" points="3558.2591,-122 3555.2591,-126 3534.2591,-126 3531.2591,-122 3443.7409,-122 3443.7409,-86 3558.2591,-86 3558.2591,-122"/>
<text text-anchor="middle" x="3501" y="-99.8" font-family="Times,serif" font-size="14.00" fill="#000000">MatMenuModule</text>
</g>
<!-- MatMenuModule&#45;&gt;AppMaterialModule -->
<g id="edge3" class="edge">
<title>MatMenuModule&#45;&gt;AppMaterialModule</title>
<path fill="none" stroke="#000000" d="M3512.4204,-122.2228C3512.4204,-122.2228 3512.4204,-143.7269 3512.4204,-143.7269"/>
<polygon fill="#000000" stroke="#000000" points="3508.9205,-143.7269 3512.4204,-153.7269 3515.9205,-143.727 3508.9205,-143.7269"/>
</g>
<!-- MatButtonModule -->
<g id="node4" class="node">
<title>MatButtonModule</title>
<polygon fill="#8dd3c7" stroke="#000000" points="3426.2176,-122 3423.2176,-126 3402.2176,-126 3399.2176,-122 3305.7824,-122 3305.7824,-86 3426.2176,-86 3426.2176,-122"/>
<text text-anchor="middle" x="3366" y="-99.8" font-family="Times,serif" font-size="14.00" fill="#000000">MatButtonModule</text>
</g>
<!-- MatButtonModule&#45;&gt;AppMaterialModule -->
<g id="edge4" class="edge">
<title>MatButtonModule&#45;&gt;AppMaterialModule</title>
<path fill="none" stroke="#000000" d="M3378.625,-122.2819C3378.625,-137.9478 3378.625,-158 3378.625,-158 3378.625,-158 3456.0651,-158 3456.0651,-158"/>
<polygon fill="#000000" stroke="#000000" points="3456.0651,-161.5001 3466.0651,-158 3456.0651,-154.5001 3456.0651,-161.5001"/>
</g>
<!-- MatIconModule -->
<g id="node5" class="node">
<title>MatIconModule</title>
<polygon fill="#8dd3c7" stroke="#000000" points="3287.4748,-122 3284.4748,-126 3263.4748,-126 3260.4748,-122 3180.5252,-122 3180.5252,-86 3287.4748,-86 3287.4748,-122"/>
<text text-anchor="middle" x="3234" y="-99.8" font-family="Times,serif" font-size="14.00" fill="#000000">MatIconModule</text>
</g>
<!-- MatIconModule&#45;&gt;AppMaterialModule -->
<g id="edge5" class="edge">
<title>MatIconModule&#45;&gt;AppMaterialModule</title>
<path fill="none" stroke="#000000" d="M3245.125,-122.0336C3245.125,-139.0597 3245.125,-162 3245.125,-162 3245.125,-162 3456.1851,-162 3456.1851,-162"/>
<polygon fill="#000000" stroke="#000000" points="3456.1851,-165.5001 3466.1851,-162 3456.185,-158.5001 3456.1851,-165.5001"/>
</g>
<!-- MatProgressSpinnerModule -->
<g id="node6" class="node">
<title>MatProgressSpinnerModule</title>
<polygon fill="#8dd3c7" stroke="#000000" points="3162.8557,-122 3159.8557,-126 3138.8557,-126 3135.8557,-122 2989.1443,-122 2989.1443,-86 3162.8557,-86 3162.8557,-122"/>
<text text-anchor="middle" x="3076" y="-99.8" font-family="Times,serif" font-size="14.00" fill="#000000">MatProgressSpinnerModule</text>
</g>
<!-- MatProgressSpinnerModule&#45;&gt;AppMaterialModule -->
<g id="edge6" class="edge">
<title>MatProgressSpinnerModule&#45;&gt;AppMaterialModule</title>
<path fill="none" stroke="#000000" d="M3085.125,-122.302C3085.125,-140.2699 3085.125,-165 3085.125,-165 3085.125,-165 3456.0621,-165 3456.0621,-165"/>
<polygon fill="#000000" stroke="#000000" points="3456.0621,-168.5001 3466.0621,-165 3456.062,-161.5001 3456.0621,-168.5001"/>
</g>
<!-- MatSidenavModule -->
<g id="node7" class="node">
<title>MatSidenavModule</title>
<polygon fill="#8dd3c7" stroke="#000000" points="4418.7022,-122 4415.7022,-126 4394.7022,-126 4391.7022,-122 4291.2978,-122 4291.2978,-86 4418.7022,-86 4418.7022,-122"/>
<text text-anchor="middle" x="4355" y="-99.8" font-family="Times,serif" font-size="14.00" fill="#000000">MatSidenavModule</text>
</g>
<!-- MatSidenavModule&#45;&gt;AppMaterialModule -->
<g id="edge7" class="edge">
<title>MatSidenavModule&#45;&gt;AppMaterialModule</title>
<path fill="none" stroke="#000000" d="M4307.044,-122.308C4307.044,-142.1455 4307.044,-171 4307.044,-171 4307.044,-171 3607.7455,-171 3607.7455,-171"/>
<polygon fill="#000000" stroke="#000000" points="3607.7455,-167.5001 3597.7455,-171 3607.7454,-174.5001 3607.7455,-167.5001"/>
</g>
<!-- MatListModule -->
<g id="node8" class="node">
<title>MatListModule</title>
<polygon fill="#8dd3c7" stroke="#000000" points="4272.8781,-122 4269.8781,-126 4248.8781,-126 4245.8781,-122 4169.1219,-122 4169.1219,-86 4272.8781,-86 4272.8781,-122"/>
<text text-anchor="middle" x="4221" y="-99.8" font-family="Times,serif" font-size="14.00" fill="#000000">MatListModule</text>
</g>
<!-- MatListModule&#45;&gt;AppMaterialModule -->
<g id="edge8" class="edge">
<title>MatListModule&#45;&gt;AppMaterialModule</title>
<path fill="none" stroke="#000000" d="M4183.2334,-122.1686C4183.2334,-141.0898 4183.2334,-168 4183.2334,-168 4183.2334,-168 3607.7257,-168 3607.7257,-168"/>
<polygon fill="#000000" stroke="#000000" points="3607.7258,-164.5001 3597.7257,-168 3607.7257,-171.5001 3607.7258,-164.5001"/>
</g>
<!-- MatCardModule -->
<g id="node9" class="node">
<title>MatCardModule</title>
<polygon fill="#8dd3c7" stroke="#000000" points="4150.8118,-122 4147.8118,-126 4126.8118,-126 4123.8118,-122 4041.1882,-122 4041.1882,-86 4150.8118,-86 4150.8118,-122"/>
<text text-anchor="middle" x="4096" y="-99.8" font-family="Times,serif" font-size="14.00" fill="#000000">MatCardModule</text>
</g>
<!-- MatCardModule&#45;&gt;AppMaterialModule -->
<g id="edge9" class="edge">
<title>MatCardModule&#45;&gt;AppMaterialModule</title>
<path fill="none" stroke="#000000" d="M4053.8501,-122.002C4053.8501,-139.6754 4053.8501,-164 4053.8501,-164 4053.8501,-164 3607.5643,-164 3607.5643,-164"/>
<polygon fill="#000000" stroke="#000000" points="3607.5643,-160.5001 3597.5643,-164 3607.5642,-167.5001 3607.5643,-160.5001"/>
</g>
<!-- MatFormFieldModule -->
<g id="node10" class="node">
<title>MatFormFieldModule</title>
<polygon fill="#8dd3c7" stroke="#000000" points="4023.712,-122 4020.712,-126 3999.712,-126 3996.712,-122 3882.288,-122 3882.288,-86 4023.712,-86 4023.712,-122"/>
<text text-anchor="middle" x="3953" y="-99.8" font-family="Times,serif" font-size="14.00" fill="#000000">MatFormFieldModule</text>
</g>
<!-- MatFormFieldModule&#45;&gt;AppMaterialModule -->
<g id="edge10" class="edge">
<title>MatFormFieldModule&#45;&gt;AppMaterialModule</title>
<path fill="none" stroke="#000000" d="M3892.9487,-122.0352C3892.9487,-138.7344 3892.9487,-161 3892.9487,-161 3892.9487,-161 3607.7838,-161 3607.7838,-161"/>
<polygon fill="#000000" stroke="#000000" points="3607.7839,-157.5001 3597.7838,-161 3607.7838,-164.5001 3607.7839,-157.5001"/>
</g>
<!-- MatDatepickerModule -->
<g id="node11" class="node">
<title>MatDatepickerModule</title>
<polygon fill="#8dd3c7" stroke="#000000" points="3864.5072,-122 3861.5072,-126 3840.5072,-126 3837.5072,-122 3721.4928,-122 3721.4928,-86 3864.5072,-86 3864.5072,-122"/>
<text text-anchor="middle" x="3793" y="-99.8" font-family="Times,serif" font-size="14.00" fill="#000000">MatDatepickerModule</text>
</g>
<!-- MatDatepickerModule&#45;&gt;AppMaterialModule -->
<g id="edge11" class="edge">
<title>MatDatepickerModule&#45;&gt;AppMaterialModule</title>
<path fill="none" stroke="#000000" d="M3730.1029,-122.2819C3730.1029,-137.9478 3730.1029,-158 3730.1029,-158 3730.1029,-158 3607.6902,-158 3607.6902,-158"/>
<polygon fill="#000000" stroke="#000000" points="3607.6903,-154.5001 3597.6902,-158 3607.6902,-161.5001 3607.6903,-154.5001"/>
</g>
<!-- MatToolbarModule  -->
<g id="node13" class="node">
<title>MatToolbarModule </title>
<polygon fill="#fb8072" stroke="#000000" points="3738.918,-255 3609.082,-255 3609.082,-219 3738.918,-219 3738.918,-255"/>
<text text-anchor="middle" x="3674" y="-232.8" font-family="Times,serif" font-size="14.00" fill="#000000">MatToolbarModule </text>
</g>
<!-- AppMaterialModule&#45;&gt;MatToolbarModule  -->
<g id="edge12" class="edge">
<title>AppMaterialModule&#45;&gt;MatToolbarModule </title>
<path fill="none" stroke="#000000" stroke-dasharray="5,2" d="M3597.6971,-187C3627.4707,-187 3656.125,-187 3656.125,-187 3656.125,-187 3656.125,-208.9489 3656.125,-208.9489"/>
<polygon fill="#000000" stroke="#000000" points="3652.6251,-208.9488 3656.125,-218.9489 3659.6251,-208.9489 3652.6251,-208.9488"/>
</g>
<!-- MatMenuModule  -->
<g id="node14" class="node">
<title>MatMenuModule </title>
<polygon fill="#fb8072" stroke="#000000" points="3591.2591,-255 3472.7409,-255 3472.7409,-219 3591.2591,-219 3591.2591,-255"/>
<text text-anchor="middle" x="3532" y="-232.8" font-family="Times,serif" font-size="14.00" fill="#000000">MatMenuModule </text>
</g>
<!-- AppMaterialModule&#45;&gt;MatMenuModule  -->
<g id="edge13" class="edge">
<title>AppMaterialModule&#45;&gt;MatMenuModule </title>
<path fill="none" stroke="#000000" stroke-dasharray="5,2" d="M3551.7098,-190.1061C3551.7098,-190.1061 3551.7098,-208.991 3551.7098,-208.991"/>
<polygon fill="#000000" stroke="#000000" points="3548.2099,-208.9909 3551.7098,-218.991 3555.2099,-208.991 3548.2099,-208.9909"/>
</g>
<!-- MatButtonModule  -->
<g id="node15" class="node">
<title>MatButtonModule </title>
<polygon fill="#fb8072" stroke="#000000" points="3454.7177,-255 3331.2823,-255 3331.2823,-219 3454.7177,-219 3454.7177,-255"/>
<text text-anchor="middle" x="3393" y="-232.8" font-family="Times,serif" font-size="14.00" fill="#000000">MatButtonModule </text>
</g>
<!-- AppMaterialModule&#45;&gt;MatButtonModule  -->
<g id="edge14" class="edge">
<title>AppMaterialModule&#45;&gt;MatButtonModule </title>
<path fill="none" stroke="#000000" stroke-dasharray="5,2" d="M3466.3876,-187C3456.343,-187 3449.2397,-187 3449.2397,-187 3449.2397,-187 3449.2397,-208.9489 3449.2397,-208.9489"/>
<polygon fill="#000000" stroke="#000000" points="3445.7397,-208.9488 3449.2397,-218.9489 3452.7397,-208.9489 3445.7397,-208.9488"/>
</g>
<!-- MatIconModule  -->
<g id="node16" class="node">
<title>MatIconModule </title>
<polygon fill="#fb8072" stroke="#000000" points="3313.4758,-255 3202.5242,-255 3202.5242,-219 3313.4758,-219 3313.4758,-255"/>
<text text-anchor="middle" x="3258" y="-232.8" font-family="Times,serif" font-size="14.00" fill="#000000">MatIconModule </text>
</g>
<!-- AppMaterialModule&#45;&gt;MatIconModule  -->
<g id="edge15" class="edge">
<title>AppMaterialModule&#45;&gt;MatIconModule </title>
<path fill="none" stroke="#000000" stroke-dasharray="5,2" d="M3466.1648,-183C3400.5739,-183 3309.5644,-183 3309.5644,-183 3309.5644,-183 3309.5644,-208.7181 3309.5644,-208.7181"/>
<polygon fill="#000000" stroke="#000000" points="3306.0644,-208.718 3309.5644,-218.7181 3313.0644,-208.7181 3306.0644,-208.718"/>
</g>
<!-- MatProgressSpinnerModule  -->
<g id="node17" class="node">
<title>MatProgressSpinnerModule </title>
<polygon fill="#fb8072" stroke="#000000" points="3184.856,-255 3007.144,-255 3007.144,-219 3184.856,-219 3184.856,-255"/>
<text text-anchor="middle" x="3096" y="-232.8" font-family="Times,serif" font-size="14.00" fill="#000000">MatProgressSpinnerModule </text>
</g>
<!-- AppMaterialModule&#45;&gt;MatProgressSpinnerModule  -->
<g id="edge16" class="edge">
<title>AppMaterialModule&#45;&gt;MatProgressSpinnerModule </title>
<path fill="none" stroke="#000000" stroke-dasharray="5,2" d="M3466.3381,-180C3362.421,-180 3171.7202,-180 3171.7202,-180 3171.7202,-180 3171.7202,-208.9648 3171.7202,-208.9648"/>
<polygon fill="#000000" stroke="#000000" points="3168.2203,-208.9648 3171.7202,-218.9648 3175.2203,-208.9649 3168.2203,-208.9648"/>
</g>
<!-- MatSidenavModule  -->
<g id="node18" class="node">
<title>MatSidenavModule </title>
<polygon fill="#fb8072" stroke="#000000" points="2989.2023,-255 2858.7977,-255 2858.7977,-219 2989.2023,-219 2989.2023,-255"/>
<text text-anchor="middle" x="2924" y="-232.8" font-family="Times,serif" font-size="14.00" fill="#000000">MatSidenavModule </text>
</g>
<!-- AppMaterialModule&#45;&gt;MatSidenavModule  -->
<g id="edge17" class="edge">
<title>AppMaterialModule&#45;&gt;MatSidenavModule </title>
<path fill="none" stroke="#000000" stroke-dasharray="5,2" d="M3466.2321,-176C3319.8504,-176 2979.953,-176 2979.953,-176 2979.953,-176 2979.953,-208.698 2979.953,-208.698"/>
<polygon fill="#000000" stroke="#000000" points="2976.4531,-208.698 2979.953,-218.698 2983.4531,-208.698 2976.4531,-208.698"/>
</g>
<!-- MatListModule  -->
<g id="node19" class="node">
<title>MatListModule </title>
<polygon fill="#fb8072" stroke="#000000" points="4322.8787,-255 4215.1213,-255 4215.1213,-219 4322.8787,-219 4322.8787,-255"/>
<text text-anchor="middle" x="4269" y="-232.8" font-family="Times,serif" font-size="14.00" fill="#000000">MatListModule </text>
</g>
<!-- AppMaterialModule&#45;&gt;MatListModule  -->
<g id="edge18" class="edge">
<title>AppMaterialModule&#45;&gt;MatListModule </title>
<path fill="none" stroke="#000000" stroke-dasharray="5,2" d="M3597.7186,-174C3774.0112,-174 4244.125,-174 4244.125,-174 4244.125,-174 4244.125,-208.7778 4244.125,-208.7778"/>
<polygon fill="#000000" stroke="#000000" points="4240.6251,-208.7778 4244.125,-218.7778 4247.6251,-208.7778 4240.6251,-208.7778"/>
</g>
<!-- MatCardModule  -->
<g id="node20" class="node">
<title>MatCardModule </title>
<polygon fill="#fb8072" stroke="#000000" points="4197.3116,-255 4084.6884,-255 4084.6884,-219 4197.3116,-219 4197.3116,-255"/>
<text text-anchor="middle" x="4141" y="-232.8" font-family="Times,serif" font-size="14.00" fill="#000000">MatCardModule </text>
</g>
<!-- AppMaterialModule&#45;&gt;MatCardModule  -->
<g id="edge19" class="edge">
<title>AppMaterialModule&#45;&gt;MatCardModule </title>
<path fill="none" stroke="#000000" stroke-dasharray="5,2" d="M3597.7569,-177C3750.7436,-177 4117.625,-177 4117.625,-177 4117.625,-177 4117.625,-208.998 4117.625,-208.998"/>
<polygon fill="#000000" stroke="#000000" points="4114.1251,-208.998 4117.625,-218.998 4121.1251,-208.9981 4114.1251,-208.998"/>
</g>
<!-- MatFormFieldModule  -->
<g id="node21" class="node">
<title>MatFormFieldModule </title>
<polygon fill="#fb8072" stroke="#000000" points="4066.2121,-255 3921.7879,-255 3921.7879,-219 4066.2121,-219 4066.2121,-255"/>
<text text-anchor="middle" x="3994" y="-232.8" font-family="Times,serif" font-size="14.00" fill="#000000">MatFormFieldModule </text>
</g>
<!-- AppMaterialModule&#45;&gt;MatFormFieldModule  -->
<g id="edge20" class="edge">
<title>AppMaterialModule&#45;&gt;MatFormFieldModule </title>
<path fill="none" stroke="#000000" stroke-dasharray="5,2" d="M3597.966,-181C3720.8856,-181 3972.625,-181 3972.625,-181 3972.625,-181 3972.625,-208.973 3972.625,-208.973"/>
<polygon fill="#000000" stroke="#000000" points="3969.1251,-208.973 3972.625,-218.973 3976.1251,-208.973 3969.1251,-208.973"/>
</g>
<!-- MatDatepickerModule  -->
<g id="node22" class="node">
<title>MatDatepickerModule </title>
<polygon fill="#fb8072" stroke="#000000" points="3903.5064,-255 3756.4936,-255 3756.4936,-219 3903.5064,-219 3903.5064,-255"/>
<text text-anchor="middle" x="3830" y="-232.8" font-family="Times,serif" font-size="14.00" fill="#000000">MatDatepickerModule </text>
</g>
<!-- AppMaterialModule&#45;&gt;MatDatepickerModule  -->
<g id="edge21" class="edge">
<title>AppMaterialModule&#45;&gt;MatDatepickerModule </title>
<path fill="none" stroke="#000000" stroke-dasharray="5,2" d="M3597.6774,-184C3680.0512,-184 3810.625,-184 3810.625,-184 3810.625,-184 3810.625,-208.7604 3810.625,-208.7604"/>
<polygon fill="#000000" stroke="#000000" points="3807.1251,-208.7604 3810.625,-218.7604 3814.1251,-208.7604 3807.1251,-208.7604"/>
</g>
<!-- AppModule -->
<g id="node27" class="node">
<title>AppModule</title>
<polygon fill="#8dd3c7" stroke="#000000" points="2077.6571,-255 2074.6571,-259 2053.6571,-259 2050.6571,-255 1994.3429,-255 1994.3429,-219 2077.6571,-219 2077.6571,-255"/>
<text text-anchor="middle" x="2036" y="-232.8" font-family="Times,serif" font-size="14.00" fill="#000000">AppModule</text>
</g>
<!-- AppMaterialModule&#45;&gt;AppModule -->
<g id="edge31" class="edge">
<title>AppMaterialModule&#45;&gt;AppModule</title>
<path fill="none" stroke="#000000" d="M3466.1495,-172C3293.0862,-172 2838.6843,-172 2838.6843,-172 2838.6843,-172 2838.6843,-250 2838.6843,-250 2838.6843,-250 2087.7452,-250 2087.7452,-250"/>
<polygon fill="#000000" stroke="#000000" points="2087.7452,-246.5001 2077.7452,-250 2087.7451,-253.5001 2087.7452,-246.5001"/>
</g>
<!-- AppMaterialModule&#45;&gt;StatisticsModule -->
<g id="edge41" class="edge">
<title>AppMaterialModule&#45;&gt;StatisticsModule</title>
<path fill="none" stroke="#000000" d="M3512.2902,-190.0449C3512.2902,-197.749 3512.2902,-205 3512.2902,-205 3512.2902,-205 694.3506,-205 694.3506,-205 694.3506,-205 694.3506,-208.7566 694.3506,-208.7566"/>
<polygon fill="#000000" stroke="#000000" points="690.8507,-208.7566 694.3506,-218.7566 697.8507,-208.7566 690.8507,-208.7566"/>
</g>
<!-- AppComponent -->
<g id="node23" class="node">
<title>AppComponent</title>
<polygon fill="#ffffb3" stroke="#000000" points="2818.9399,-190 2713.0601,-190 2713.0601,-154 2818.9399,-154 2818.9399,-190"/>
<text text-anchor="middle" x="2766" y="-167.8" font-family="Times,serif" font-size="14.00" fill="#000000">AppComponent</text>
</g>
<!-- AppComponent&#45;&gt;AppModule -->
<g id="edge22" class="edge">
<title>AppComponent&#45;&gt;AppModule</title>
<path fill="none" stroke="#000000" d="M2766,-190.0449C2766,-211.6623 2766,-245 2766,-245 2766,-245 2087.8699,-245 2087.8699,-245"/>
<polygon fill="#000000" stroke="#000000" points="2087.8699,-241.5001 2077.8699,-245 2087.8699,-248.5001 2087.8699,-241.5001"/>
</g>
<!-- HeaderComponent -->
<g id="node24" class="node">
<title>HeaderComponent</title>
<polygon fill="#ffffb3" stroke="#000000" points="2694.7437,-190 2573.2563,-190 2573.2563,-154 2694.7437,-154 2694.7437,-190"/>
<text text-anchor="middle" x="2634" y="-167.8" font-family="Times,serif" font-size="14.00" fill="#000000">HeaderComponent</text>
</g>
<!-- HeaderComponent&#45;&gt;AppModule -->
<g id="edge23" class="edge">
<title>HeaderComponent&#45;&gt;AppModule</title>
<path fill="none" stroke="#000000" d="M2634,-190.2228C2634,-210.3652 2634,-240 2634,-240 2634,-240 2088.0502,-240 2088.0502,-240"/>
<polygon fill="#000000" stroke="#000000" points="2088.0502,-236.5001 2078.0502,-240 2088.0502,-243.5001 2088.0502,-236.5001"/>
</g>
<!-- FooterComponent -->
<g id="node25" class="node">
<title>FooterComponent</title>
<polygon fill="#ffffb3" stroke="#000000" points="2554.8809,-190 2437.1191,-190 2437.1191,-154 2554.8809,-154 2554.8809,-190"/>
<text text-anchor="middle" x="2496" y="-167.8" font-family="Times,serif" font-size="14.00" fill="#000000">FooterComponent</text>
</g>
<!-- FooterComponent&#45;&gt;AppModule -->
<g id="edge24" class="edge">
<title>FooterComponent&#45;&gt;AppModule</title>
<path fill="none" stroke="#000000" d="M2496,-190.2222C2496,-208.8285 2496,-235 2496,-235 2496,-235 2088.0414,-235 2088.0414,-235"/>
<polygon fill="#000000" stroke="#000000" points="2088.0414,-231.5001 2078.0414,-235 2088.0413,-238.5001 2088.0414,-231.5001"/>
</g>
<!-- ContentComponent -->
<g id="node26" class="node">
<title>ContentComponent</title>
<polygon fill="#ffffb3" stroke="#000000" points="2418.6652,-190 2293.3348,-190 2293.3348,-154 2418.6652,-154 2418.6652,-190"/>
<text text-anchor="middle" x="2356" y="-167.8" font-family="Times,serif" font-size="14.00" fill="#000000">ContentComponent</text>
</g>
<!-- ContentComponent&#45;&gt;AppModule -->
<g id="edge25" class="edge">
<title>ContentComponent&#45;&gt;AppModule</title>
<path fill="none" stroke="#000000" d="M2356,-190.0336C2356,-207.0597 2356,-230 2356,-230 2356,-230 2087.8344,-230 2087.8344,-230"/>
<polygon fill="#000000" stroke="#000000" points="2087.8344,-226.5001 2077.8344,-230 2087.8344,-233.5001 2087.8344,-226.5001"/>
</g>
<!-- AppComponent  -->
<g id="node36" class="node">
<title>AppComponent </title>
<polygon fill="#80b1d3" stroke="#000000" points="2090.439,-323 1981.561,-323 1981.561,-287 2090.439,-287 2090.439,-323"/>
<text text-anchor="middle" x="2036" y="-300.8" font-family="Times,serif" font-size="14.00" fill="#000000">AppComponent </text>
</g>
<!-- AppModule&#45;&gt;AppComponent  -->
<g id="edge35" class="edge">
<title>AppModule&#45;&gt;AppComponent </title>
<path fill="none" stroke="#000000" stroke-dasharray="1,5" d="M2036,-255.2228C2036,-255.2228 2036,-276.7269 2036,-276.7269"/>
<polygon fill="#000000" stroke="#000000" points="2032.5001,-276.7269 2036,-286.7269 2039.5001,-276.727 2032.5001,-276.7269"/>
</g>
<!-- BrowserModule -->
<g id="node28" class="node">
<title>BrowserModule</title>
<polygon fill="#8dd3c7" stroke="#000000" points="1481.4734,-190 1478.4734,-194 1457.4734,-194 1454.4734,-190 1374.5266,-190 1374.5266,-154 1481.4734,-154 1481.4734,-190"/>
<text text-anchor="middle" x="1428" y="-167.8" font-family="Times,serif" font-size="14.00" fill="#000000">BrowserModule</text>
</g>
<!-- BrowserModule&#45;&gt;AppModule -->
<g id="edge26" class="edge">
<title>BrowserModule&#45;&gt;AppModule</title>
<path fill="none" stroke="#000000" d="M1428,-190.027C1428,-206.3976 1428,-228 1428,-228 1428,-228 1984.2097,-228 1984.2097,-228"/>
<polygon fill="#000000" stroke="#000000" points="1984.2097,-231.5001 1994.2097,-228 1984.2097,-224.5001 1984.2097,-231.5001"/>
</g>
<!-- AppRoutingModule -->
<g id="node29" class="node">
<title>AppRoutingModule</title>
<polygon fill="#8dd3c7" stroke="#000000" points="2269.2744,-190 2266.2744,-194 2245.2744,-194 2242.2744,-190 2140.7256,-190 2140.7256,-154 2269.2744,-154 2269.2744,-190"/>
<text text-anchor="middle" x="2205" y="-167.8" font-family="Times,serif" font-size="14.00" fill="#000000">AppRoutingModule</text>
</g>
<!-- AppRoutingModule&#45;&gt;AppModule -->
<g id="edge27" class="edge">
<title>AppRoutingModule&#45;&gt;AppModule</title>
<path fill="none" stroke="#000000" d="M2205,-190.2396C2205,-205.5706 2205,-225 2205,-225 2205,-225 2087.7753,-225 2087.7753,-225"/>
<polygon fill="#000000" stroke="#000000" points="2087.7753,-221.5001 2077.7753,-225 2087.7753,-228.5001 2087.7753,-221.5001"/>
</g>
<!-- HttpClientModule -->
<g id="node30" class="node">
<title>HttpClientModule</title>
<polygon fill="#8dd3c7" stroke="#000000" points="1054.1611,-190 1051.1611,-194 1030.1611,-194 1027.1611,-190 935.8389,-190 935.8389,-154 1054.1611,-154 1054.1611,-190"/>
<text text-anchor="middle" x="995" y="-167.8" font-family="Times,serif" font-size="14.00" fill="#000000">HttpClientModule</text>
</g>
<!-- HttpClientModule&#45;&gt;AppModule -->
<g id="edge28" class="edge">
<title>HttpClientModule&#45;&gt;AppModule</title>
<path fill="none" stroke="#000000" d="M1014.7768,-190.1061C1014.7768,-209.3391 1014.7768,-237 1014.7768,-237 1014.7768,-237 1984.063,-237 1984.063,-237"/>
<polygon fill="#000000" stroke="#000000" points="1984.063,-240.5001 1994.063,-237 1984.0629,-233.5001 1984.063,-240.5001"/>
</g>
<!-- HttpClientModule&#45;&gt;StatisticsModule -->
<g id="edge44" class="edge">
<title>HttpClientModule&#45;&gt;StatisticsModule</title>
<path fill="none" stroke="#000000" d="M975.2232,-190.2843C975.2232,-211.3211 975.2232,-243 975.2232,-243 975.2232,-243 741.2309,-243 741.2309,-243"/>
<polygon fill="#000000" stroke="#000000" points="741.2309,-239.5001 731.2309,-243 741.2308,-246.5001 741.2309,-239.5001"/>
</g>
<!-- BrowserAnimationsModule -->
<g id="node31" class="node">
<title>BrowserAnimationsModule</title>
<polygon fill="#8dd3c7" stroke="#000000" points="2122.3019,-190 2119.3019,-194 2098.3019,-194 2095.3019,-190 1949.6981,-190 1949.6981,-154 2122.3019,-154 2122.3019,-190"/>
<text text-anchor="middle" x="2036" y="-167.8" font-family="Times,serif" font-size="14.00" fill="#000000">BrowserAnimationsModule</text>
</g>
<!-- BrowserAnimationsModule&#45;&gt;AppModule -->
<g id="edge29" class="edge">
<title>BrowserAnimationsModule&#45;&gt;AppModule</title>
<path fill="none" stroke="#000000" d="M2036,-190.1061C2036,-190.1061 2036,-208.991 2036,-208.991"/>
<polygon fill="#000000" stroke="#000000" points="2032.5001,-208.9909 2036,-218.991 2039.5001,-208.991 2032.5001,-208.9909"/>
</g>
<!-- FontAwesomeModule -->
<g id="node32" class="node">
<title>FontAwesomeModule</title>
<polygon fill="#8dd3c7" stroke="#000000" points="1213.7007,-190 1210.7007,-194 1189.7007,-194 1186.7007,-190 1072.2993,-190 1072.2993,-154 1213.7007,-154 1213.7007,-190"/>
<text text-anchor="middle" x="1143" y="-167.8" font-family="Times,serif" font-size="14.00" fill="#000000">FontAwesomeModule</text>
</g>
<!-- FontAwesomeModule&#45;&gt;AppModule -->
<g id="edge30" class="edge">
<title>FontAwesomeModule&#45;&gt;AppModule</title>
<path fill="none" stroke="#000000" d="M1166.5334,-190.2667C1166.5334,-208.5552 1166.5334,-234 1166.5334,-234 1166.5334,-234 1984.0638,-234 1984.0638,-234"/>
<polygon fill="#000000" stroke="#000000" points="1984.0639,-237.5001 1994.0638,-234 1984.0638,-230.5001 1984.0639,-237.5001"/>
</g>
<!-- FontAwesomeModule&#45;&gt;StatisticsModule -->
<g id="edge43" class="edge">
<title>FontAwesomeModule&#45;&gt;StatisticsModule</title>
<path fill="none" stroke="#000000" d="M1119.4666,-190.2921C1119.4666,-212.2057 1119.4666,-246 1119.4666,-246 1119.4666,-246 741.2687,-246 741.2687,-246"/>
<polygon fill="#000000" stroke="#000000" points="741.2687,-242.5001 731.2687,-246 741.2687,-249.5001 741.2687,-242.5001"/>
</g>
<!-- FlexLayoutModule -->
<g id="node33" class="node">
<title>FlexLayoutModule</title>
<polygon fill="#8dd3c7" stroke="#000000" points="1356.0954,-190 1353.0954,-194 1332.0954,-194 1329.0954,-190 1231.9046,-190 1231.9046,-154 1356.0954,-154 1356.0954,-190"/>
<text text-anchor="middle" x="1294" y="-167.8" font-family="Times,serif" font-size="14.00" fill="#000000">FlexLayoutModule</text>
</g>
<!-- FlexLayoutModule&#45;&gt;AppModule -->
<g id="edge32" class="edge">
<title>FlexLayoutModule&#45;&gt;AppModule</title>
<path fill="none" stroke="#000000" d="M1314.6826,-190.0225C1314.6826,-207.3734 1314.6826,-231 1314.6826,-231 1314.6826,-231 1984.1011,-231 1984.1011,-231"/>
<polygon fill="#000000" stroke="#000000" points="1984.1012,-234.5001 1994.1011,-231 1984.1011,-227.5001 1984.1012,-234.5001"/>
</g>
<!-- FlexLayoutModule&#45;&gt;StatisticsModule -->
<g id="edge42" class="edge">
<title>FlexLayoutModule&#45;&gt;StatisticsModule</title>
<path fill="none" stroke="#000000" d="M1273.3174,-190.2479C1273.3174,-213.0179 1273.3174,-249 1273.3174,-249 1273.3174,-249 741.1235,-249 741.1235,-249"/>
<polygon fill="#000000" stroke="#000000" points="741.1236,-245.5001 731.1235,-249 741.1235,-252.5001 741.1236,-245.5001"/>
</g>
<!-- BsDatepickerModule.forRoot() -->
<g id="node34" class="node">
<title>BsDatepickerModule.forRoot()</title>
<polygon fill="#8dd3c7" stroke="#000000" points="1932.1074,-190 1929.1074,-194 1908.1074,-194 1905.1074,-190 1739.8926,-190 1739.8926,-154 1932.1074,-154 1932.1074,-190"/>
<text text-anchor="middle" x="1836" y="-167.8" font-family="Times,serif" font-size="14.00" fill="#000000">BsDatepickerModule.forRoot()</text>
</g>
<!-- BsDatepickerModule.forRoot()&#45;&gt;AppModule -->
<g id="edge33" class="edge">
<title>BsDatepickerModule.forRoot()&#45;&gt;AppModule</title>
<path fill="none" stroke="#000000" d="M1836,-190.0511C1836,-204.373 1836,-222 1836,-222 1836,-222 1984.0734,-222 1984.0734,-222"/>
<polygon fill="#000000" stroke="#000000" points="1984.0735,-225.5001 1994.0734,-222 1984.0734,-218.5001 1984.0735,-225.5001"/>
</g>
<!-- ServiceWorkerModule.register(args) -->
<g id="node35" class="node">
<title>ServiceWorkerModule.register(args)</title>
<polygon fill="#8dd3c7" stroke="#000000" points="1722.3954,-190 1719.3954,-194 1698.3954,-194 1695.3954,-190 1499.6046,-190 1499.6046,-154 1722.3954,-154 1722.3954,-190"/>
<text text-anchor="middle" x="1611" y="-167.8" font-family="Times,serif" font-size="14.00" fill="#000000">ServiceWorkerModule.register(args)</text>
</g>
<!-- ServiceWorkerModule.register(args)&#45;&gt;AppModule -->
<g id="edge34" class="edge">
<title>ServiceWorkerModule.register(args)&#45;&gt;AppModule</title>
<path fill="none" stroke="#000000" d="M1611,-190.2396C1611,-205.5706 1611,-225 1611,-225 1611,-225 1984.0862,-225 1984.0862,-225"/>
<polygon fill="#000000" stroke="#000000" points="1984.0863,-228.5001 1994.0862,-225 1984.0862,-221.5001 1984.0863,-228.5001"/>
</g>
<!-- StatisticsComponent -->
<g id="node37" class="node">
<title>StatisticsComponent</title>
<polygon fill="#ffffb3" stroke="#000000" points="741.8864,-190 610.1136,-190 610.1136,-154 741.8864,-154 741.8864,-190"/>
<text text-anchor="middle" x="676" y="-167.8" font-family="Times,serif" font-size="14.00" fill="#000000">StatisticsComponent</text>
</g>
<!-- StatisticsComponent&#45;&gt;StatisticsModule -->
<g id="edge36" class="edge">
<title>StatisticsComponent&#45;&gt;StatisticsModule</title>
<path fill="none" stroke="#000000" d="M657.6494,-190.1061C657.6494,-190.1061 657.6494,-208.991 657.6494,-208.991"/>
<polygon fill="#000000" stroke="#000000" points="654.1495,-208.9909 657.6494,-218.991 661.1495,-208.991 654.1495,-208.9909"/>
</g>
<!-- DashboardComponent -->
<g id="node38" class="node">
<title>DashboardComponent</title>
<polygon fill="#ffffb3" stroke="#000000" points="591.9734,-190 450.0266,-190 450.0266,-154 591.9734,-154 591.9734,-190"/>
<text text-anchor="middle" x="521" y="-167.8" font-family="Times,serif" font-size="14.00" fill="#000000">DashboardComponent</text>
</g>
<!-- DashboardComponent&#45;&gt;StatisticsModule -->
<g id="edge37" class="edge">
<title>DashboardComponent&#45;&gt;StatisticsModule</title>
<path fill="none" stroke="#000000" d="M521,-190.0091C521,-206.0494 521,-227 521,-227 521,-227 610.9164,-227 610.9164,-227"/>
<polygon fill="#000000" stroke="#000000" points="610.9164,-230.5001 620.9164,-227 610.9163,-223.5001 610.9164,-230.5001"/>
</g>
<!-- HistoricalComponent -->
<g id="node39" class="node">
<title>HistoricalComponent</title>
<polygon fill="#ffffb3" stroke="#000000" points="896.0366,-190 759.9634,-190 759.9634,-154 896.0366,-154 896.0366,-190"/>
<text text-anchor="middle" x="828" y="-167.8" font-family="Times,serif" font-size="14.00" fill="#000000">HistoricalComponent</text>
</g>
<!-- HistoricalComponent&#45;&gt;StatisticsModule -->
<g id="edge38" class="edge">
<title>HistoricalComponent&#45;&gt;StatisticsModule</title>
<path fill="none" stroke="#000000" d="M828,-190.2228C828,-210.3652 828,-240 828,-240 828,-240 741.3055,-240 741.3055,-240"/>
<polygon fill="#000000" stroke="#000000" points="741.3055,-236.5001 731.3055,-240 741.3054,-243.5001 741.3055,-236.5001"/>
</g>
<!-- StatisticsRoutingModule -->
<g id="node41" class="node">
<title>StatisticsRoutingModule</title>
<polygon fill="#8dd3c7" stroke="#000000" points="425.7218,-190 422.7218,-194 401.7218,-194 398.7218,-190 270.2782,-190 270.2782,-154 425.7218,-154 425.7218,-190"/>
<text text-anchor="middle" x="348" y="-167.8" font-family="Times,serif" font-size="14.00" fill="#000000">StatisticsRoutingModule</text>
</g>
<!-- StatisticsRoutingModule&#45;&gt;StatisticsModule -->
<g id="edge40" class="edge">
<title>StatisticsRoutingModule&#45;&gt;StatisticsModule</title>
<path fill="none" stroke="#000000" d="M348,-190.2667C348,-208.5552 348,-234 348,-234 348,-234 610.7302,-234 610.7302,-234"/>
<polygon fill="#000000" stroke="#000000" points="610.7302,-237.5001 620.7302,-234 610.7301,-230.5001 610.7302,-237.5001"/>
</g>
<!-- ChartsModule -->
<g id="node42" class="node">
<title>ChartsModule</title>
<polygon fill="#8dd3c7" stroke="#000000" points="252.0968,-190 249.0968,-194 228.0968,-194 225.0968,-190 155.9032,-190 155.9032,-154 252.0968,-154 252.0968,-190"/>
<text text-anchor="middle" x="204" y="-167.8" font-family="Times,serif" font-size="14.00" fill="#000000">ChartsModule</text>
</g>
<!-- ChartsModule&#45;&gt;StatisticsModule -->
<g id="edge45" class="edge">
<title>ChartsModule&#45;&gt;StatisticsModule</title>
<path fill="none" stroke="#000000" d="M204,-190.1289C204,-210.5724 204,-241 204,-241 204,-241 610.9318,-241 610.9318,-241"/>
<polygon fill="#000000" stroke="#000000" points="610.9319,-244.5001 620.9318,-241 610.9318,-237.5001 610.9319,-244.5001"/>
</g>
<!-- ApiService -->
<g id="node43" class="node">
<title>ApiService</title>
<ellipse fill="#fdb462" stroke="#000000" cx="78" cy="-172" rx="54.4508" ry="18"/>
<text text-anchor="middle" x="78" y="-167.8" font-family="Times,serif" font-size="14.00" fill="#000000">ApiService</text>
</g>
<!-- ApiService&#45;&gt;StatisticsModule -->
<g id="edge46" class="edge">
<title>ApiService&#45;&gt;StatisticsModule</title>
<path fill="none" stroke="#000000" d="M78,-190.0109C78,-212.4852 78,-248 78,-248 78,-248 610.8135,-248 610.8135,-248"/>
<polygon fill="#000000" stroke="#000000" points="610.8135,-251.5001 620.8135,-248 610.8134,-244.5001 610.8135,-251.5001"/>
</g>
</g>
</svg>
